<svg width="567" height="459" viewBox="0 0 567 459" fill="none" xmlns="http://www.w3.org/2000/svg">
<line x1="295.5" y1="181" x2="295.5" y2="425" stroke="black" stroke-dasharray="10 10"/>
<path d="M30.8821 -0.707107C30.4916 -1.09763 29.8584 -1.09763 29.4679 -0.707107L23.1039 5.65685C22.7134 6.04738 22.7134 6.68054 23.1039 7.07107C23.4944 7.46159 24.1276 7.46159 24.5181 7.07107L30.175 1.41421L35.8318 7.07107C36.2224 7.46159 36.8555 7.46159 37.2461 7.07107C37.6366 6.68054 37.6366 6.04738 37.2461 5.65685L30.8821 -0.707107ZM31.175 424.851L31.175 0H29.175L29.175 424.851H31.175Z" fill="black"/>
<path d="M530.707 425.558C531.098 425.168 531.098 424.535 530.707 424.144L524.343 417.78C523.952 417.39 523.319 417.39 522.929 417.78C522.538 418.171 522.538 418.804 522.929 419.194L528.586 424.851L522.929 430.508C522.538 430.899 522.538 431.532 522.929 431.922C523.319 432.313 523.952 432.313 524.343 431.922L530.707 425.558ZM30.175 425.851H530V423.851H30.175V425.851Z" fill="black"/>
<path d="M412.84 438L413.428 429.912H414.664L415.732 432.864L417.028 436.632C417.492 435.32 417.948 434.064 418.396 432.864L419.512 429.912H420.748L421.456 438H420.484L420.208 434.808L419.92 431.22C419.496 432.404 419.06 433.6 418.612 434.808L417.484 437.82H416.56L415.492 434.808L414.268 431.292C414.268 431.604 414.192 432.776 414.04 434.808L413.812 438H412.84ZM425.637 438.108C424.765 438.108 424.073 437.816 423.561 437.232C423.057 436.64 422.805 435.896 422.805 435C422.805 434.096 423.065 433.344 423.585 432.744C424.113 432.136 424.797 431.832 425.637 431.832C426.557 431.832 427.265 432.128 427.761 432.72C428.265 433.312 428.517 434.064 428.517 434.976C428.517 435.88 428.261 436.628 427.749 437.22C427.237 437.812 426.533 438.108 425.637 438.108ZM425.637 432.672C425.061 432.672 424.609 432.896 424.281 433.344C423.953 433.792 423.789 434.34 423.789 434.988C423.789 435.62 423.957 436.16 424.293 436.608C424.629 437.048 425.077 437.268 425.637 437.268C426.245 437.268 426.713 437.052 427.041 436.62C427.369 436.18 427.533 435.636 427.533 434.988C427.533 434.316 427.377 433.764 427.065 433.332C426.753 432.892 426.277 432.672 425.637 432.672ZM432.219 437.232C432.715 437.232 433.135 437.048 433.479 436.68C433.831 436.312 434.007 435.724 434.007 434.916C434.007 434.148 433.827 433.584 433.467 433.224C433.107 432.864 432.711 432.684 432.279 432.684C431.775 432.684 431.355 432.888 431.019 433.296C430.691 433.696 430.527 434.272 430.527 435.024C430.527 435.68 430.687 436.212 431.007 436.62C431.327 437.028 431.731 437.232 432.219 437.232ZM434.007 429.516H434.955V438H434.007V437.1C433.575 437.764 432.951 438.096 432.135 438.096C431.327 438.096 430.691 437.796 430.227 437.196C429.771 436.596 429.543 435.868 429.543 435.012C429.543 434.06 429.787 433.292 430.275 432.708C430.763 432.116 431.391 431.82 432.159 431.82C432.951 431.82 433.567 432.16 434.007 432.84V429.516ZM440.588 434.568V434.328C440.588 433.824 440.452 433.424 440.18 433.128C439.908 432.824 439.532 432.672 439.052 432.672C438.596 432.672 438.208 432.836 437.888 433.164C437.568 433.492 437.38 433.96 437.324 434.568H440.588ZM441.152 436.8V437.688C440.68 437.936 440.104 438.06 439.424 438.06C438.504 438.06 437.76 437.78 437.192 437.22C436.632 436.652 436.352 435.904 436.352 434.976C436.352 434.008 436.604 433.244 437.108 432.684C437.612 432.124 438.26 431.844 439.052 431.844C439.812 431.844 440.416 432.088 440.864 432.576C441.312 433.064 441.536 433.756 441.536 434.652C441.536 434.908 441.516 435.144 441.476 435.36H437.324C437.396 435.96 437.624 436.42 438.008 436.74C438.392 437.06 438.896 437.22 439.52 437.22C440.2 437.22 440.744 437.08 441.152 436.8ZM443.029 438V429.516H443.977V438H443.029ZM454.532 430.236V431.232C454.18 431.048 453.864 430.916 453.584 430.836C453.304 430.756 452.936 430.716 452.48 430.716C451.608 430.716 450.88 431.012 450.296 431.604C449.72 432.196 449.432 432.968 449.432 433.92C449.432 434.912 449.72 435.704 450.296 436.296C450.872 436.888 451.636 437.184 452.588 437.184C453.356 437.184 454.012 436.98 454.556 436.572V437.592C454.06 437.928 453.38 438.096 452.516 438.096C451.3 438.096 450.312 437.724 449.552 436.98C448.792 436.228 448.412 435.208 448.412 433.92C448.412 432.704 448.796 431.716 449.564 430.956C450.34 430.188 451.312 429.804 452.48 429.804C453.32 429.804 454.004 429.948 454.532 430.236ZM458.403 438.108C457.531 438.108 456.839 437.816 456.327 437.232C455.823 436.64 455.571 435.896 455.571 435C455.571 434.096 455.831 433.344 456.351 432.744C456.879 432.136 457.563 431.832 458.403 431.832C459.323 431.832 460.031 432.128 460.527 432.72C461.031 433.312 461.283 434.064 461.283 434.976C461.283 435.88 461.027 436.628 460.515 437.22C460.003 437.812 459.299 438.108 458.403 438.108ZM458.403 432.672C457.827 432.672 457.375 432.896 457.047 433.344C456.719 433.792 456.555 434.34 456.555 434.988C456.555 435.62 456.723 436.16 457.059 436.608C457.395 437.048 457.843 437.268 458.403 437.268C459.011 437.268 459.479 437.052 459.807 436.62C460.135 436.18 460.299 435.636 460.299 434.988C460.299 434.316 460.143 433.764 459.831 433.332C459.519 432.892 459.043 432.672 458.403 432.672ZM463.605 431.916V432.9C463.941 432.188 464.513 431.832 465.321 431.832C466.257 431.832 466.849 432.228 467.097 433.02C467.273 432.636 467.517 432.344 467.829 432.144C468.149 431.936 468.505 431.832 468.897 431.832C469.529 431.832 470.005 432.012 470.325 432.372C470.645 432.732 470.805 433.216 470.805 433.824V438H469.857V434.064C469.857 433.144 469.469 432.684 468.693 432.684C468.309 432.684 467.965 432.86 467.661 433.212C467.357 433.556 467.205 434.044 467.205 434.676V438H466.257V434.064C466.257 433.144 465.869 432.684 465.093 432.684C464.709 432.684 464.365 432.86 464.061 433.212C463.757 433.556 463.605 434.044 463.605 434.676V438H462.669V431.916H463.605ZM475.165 437.232C475.677 437.232 476.097 437.032 476.425 436.632C476.753 436.224 476.917 435.648 476.917 434.904C476.917 434.24 476.757 433.704 476.437 433.296C476.117 432.888 475.713 432.684 475.225 432.684C474.737 432.684 474.313 432.864 473.953 433.224C473.601 433.576 473.425 434.156 473.425 434.964C473.425 435.74 473.605 436.312 473.965 436.68C474.325 437.048 474.725 437.232 475.165 437.232ZM473.425 431.916V432.84C473.849 432.16 474.477 431.82 475.309 431.82C476.117 431.82 476.749 432.116 477.205 432.708C477.669 433.292 477.901 434.024 477.901 434.904C477.901 435.84 477.657 436.608 477.169 437.208C476.689 437.8 476.061 438.096 475.285 438.096C474.485 438.096 473.865 437.756 473.425 437.076V440.364H472.489V431.916H473.425ZM479.346 438V429.516H480.294V438H479.346ZM485.975 434.568V434.328C485.975 433.824 485.839 433.424 485.567 433.128C485.295 432.824 484.919 432.672 484.439 432.672C483.983 432.672 483.595 432.836 483.275 433.164C482.955 433.492 482.767 433.96 482.711 434.568H485.975ZM486.539 436.8V437.688C486.067 437.936 485.491 438.06 484.811 438.06C483.891 438.06 483.147 437.78 482.579 437.22C482.019 436.652 481.739 435.904 481.739 434.976C481.739 434.008 481.991 433.244 482.495 432.684C482.999 432.124 483.647 431.844 484.439 431.844C485.199 431.844 485.803 432.088 486.251 432.576C486.699 433.064 486.923 433.756 486.923 434.652C486.923 434.908 486.903 435.144 486.863 435.36H482.711C482.783 435.96 483.011 436.42 483.395 436.74C483.779 437.06 484.283 437.22 484.907 437.22C485.587 437.22 486.131 437.08 486.539 436.8ZM490.888 434.892L492.928 438H491.836L490.36 435.6L488.836 438H487.792L489.832 434.88L487.912 431.904H489.004L490.384 434.184L491.776 431.904H492.856L490.888 434.892ZM494.147 438V431.916H495.095V438H494.147ZM494.171 430.452C494.059 430.332 494.003 430.184 494.003 430.008C494.003 429.832 494.059 429.684 494.171 429.564C494.291 429.444 494.439 429.384 494.615 429.384C494.791 429.384 494.939 429.444 495.059 429.564C495.179 429.684 495.239 429.832 495.239 430.008C495.239 430.184 495.179 430.332 495.059 430.452C494.939 430.564 494.791 430.62 494.615 430.62C494.439 430.62 494.291 430.564 494.171 430.452ZM498.207 432.684V436.248C498.207 436.896 498.511 437.22 499.119 437.22C499.431 437.22 499.707 437.128 499.947 436.944V437.844C499.683 437.988 499.387 438.06 499.059 438.06C497.859 438.06 497.259 437.448 497.259 436.224V432.684H496.287V431.916H497.259V430.404H498.207V431.916H499.887V432.684H498.207ZM503.009 437.844L500.549 431.916H501.617L502.409 433.92L503.477 436.68C503.541 436.472 503.861 435.552 504.437 433.92L505.145 431.916H506.165L503.969 437.844C503.657 438.668 503.285 439.248 502.853 439.584C502.429 439.92 501.941 440.088 501.389 440.088C501.181 440.088 501.013 440.068 500.885 440.028V439.176C501.005 439.208 501.141 439.224 501.293 439.224C502.101 439.224 502.673 438.764 503.009 437.844Z" fill="black"/>
<path d="M24.148 41.104V37.564H25V42.076H16.912V37.624H17.764V41.104H20.536V38.032H21.388V41.104H24.148ZM18.916 35.1763H19.984C19.232 34.8563 18.856 34.3043 18.856 33.5203C18.856 33.3763 18.864 33.2643 18.88 33.1843H19.816C19.76 33.3523 19.732 33.5243 19.732 33.7003C19.732 34.1243 19.928 34.4763 20.32 34.7563C20.712 35.0363 21.164 35.1763 21.676 35.1763H25V36.1243L18.916 36.1123V35.1763ZM18.916 31.2622H19.984C19.232 30.9422 18.856 30.3902 18.856 29.6062C18.856 29.4622 18.864 29.3502 18.88 29.2702H19.816C19.76 29.4382 19.732 29.6102 19.732 29.7862C19.732 30.2102 19.928 30.5622 20.32 30.8422C20.712 31.1222 21.164 31.2622 21.676 31.2622H25V32.2102L18.916 32.1982V31.2622ZM25.108 25.8122C25.108 26.6842 24.816 27.3762 24.232 27.8882C23.64 28.3922 22.896 28.6442 22 28.6442C21.096 28.6442 20.344 28.3842 19.744 27.8642C19.136 27.3362 18.832 26.6522 18.832 25.8122C18.832 24.8922 19.128 24.1842 19.72 23.6882C20.312 23.1842 21.064 22.9322 21.976 22.9322C22.88 22.9322 23.628 23.1882 24.22 23.7002C24.812 24.2122 25.108 24.9162 25.108 25.8122ZM19.672 25.8122C19.672 26.3882 19.896 26.8402 20.344 27.1682C20.792 27.4962 21.34 27.6602 21.988 27.6602C22.62 27.6602 23.16 27.4922 23.608 27.1562C24.048 26.8202 24.268 26.3722 24.268 25.8122C24.268 25.2042 24.052 24.7362 23.62 24.4082C23.18 24.0802 22.636 23.9162 21.988 23.9162C21.316 23.9162 20.764 24.0722 20.332 24.3842C19.892 24.6962 19.672 25.1722 19.672 25.8122ZM18.916 20.6099H19.984C19.232 20.2899 18.856 19.7379 18.856 18.9539C18.856 18.8099 18.864 18.6979 18.88 18.6179H19.816C19.76 18.7859 19.732 18.9579 19.732 19.1339C19.732 19.5579 19.928 19.9099 20.32 20.1899C20.712 20.4699 21.164 20.6099 21.676 20.6099H25V21.5579L18.916 21.5459V20.6099Z" fill="black"/>
<path d="M65.4993 22.5148C239.864 219.452 327.983 225.967 470.357 77.4956" stroke="#DC8B8B" stroke-width="3" stroke-linecap="round"/>
<path d="M46.658 85.4402C116.047 324.731 355 365 465.023 394.84" stroke="#36AC34" stroke-width="3" stroke-linecap="round"/>
<path d="M58.9143 392.698C326 385 408.26 281.126 475.019 124.956" stroke="#92A2FA" stroke-width="3" stroke-linecap="round"/>
<g filter="url(#filter0_d_7_6)">
<rect x="200.116" width="159.944" height="64.9772" rx="25" fill="#F3F2F2"/>
<rect x="200.366" y="0.25" width="159.444" height="64.4772" rx="24.75" stroke="#9B9B9B" stroke-width="0.5"/>
</g>
<path d="M285.556 9.912V10.764H283.372V18H282.4V10.764H280.216V9.912H285.556ZM289.137 18.108C288.265 18.108 287.573 17.816 287.061 17.232C286.557 16.64 286.305 15.896 286.305 15C286.305 14.096 286.565 13.344 287.085 12.744C287.613 12.136 288.297 11.832 289.137 11.832C290.057 11.832 290.765 12.128 291.261 12.72C291.765 13.312 292.017 14.064 292.017 14.976C292.017 15.88 291.761 16.628 291.249 17.22C290.737 17.812 290.033 18.108 289.137 18.108ZM289.137 12.672C288.561 12.672 288.109 12.896 287.781 13.344C287.453 13.792 287.289 14.34 287.289 14.988C287.289 15.62 287.457 16.16 287.793 16.608C288.129 17.048 288.577 17.268 289.137 17.268C289.745 17.268 290.213 17.052 290.541 16.62C290.869 16.18 291.033 15.636 291.033 14.988C291.033 14.316 290.877 13.764 290.565 13.332C290.253 12.892 289.777 12.672 289.137 12.672ZM294.711 12.684V16.248C294.711 16.896 295.015 17.22 295.623 17.22C295.935 17.22 296.211 17.128 296.451 16.944V17.844C296.187 17.988 295.891 18.06 295.563 18.06C294.363 18.06 293.763 17.448 293.763 16.224V12.684H292.791V11.916H293.763V10.404H294.711V11.916H296.391V12.684H294.711ZM301.109 15.192H300.053C299.541 15.192 299.157 15.292 298.901 15.492C298.645 15.692 298.517 15.944 298.517 16.248C298.517 16.552 298.617 16.8 298.817 16.992C299.017 17.176 299.309 17.268 299.693 17.268C300.125 17.268 300.469 17.148 300.725 16.908C300.981 16.66 301.109 16.348 301.109 15.972V15.192ZM297.965 13.188V12.24C298.421 11.96 299.021 11.82 299.765 11.82C301.293 11.82 302.057 12.596 302.057 14.148V18H301.121V17.28C300.809 17.8 300.241 18.06 299.417 18.06C298.849 18.06 298.389 17.892 298.037 17.556C297.693 17.22 297.521 16.796 297.521 16.284C297.521 15.7 297.741 15.248 298.181 14.928C298.629 14.6 299.237 14.436 300.005 14.436H301.109V14.124C301.109 13.644 301.001 13.284 300.785 13.044C300.569 12.796 300.205 12.672 299.693 12.672C299.045 12.672 298.469 12.844 297.965 13.188ZM303.787 18V9.516H304.735V18H303.787ZM310.49 17.148H314.03V18H309.518V9.912H313.97V10.764H310.49V13.536H313.562V14.388H310.49V17.148ZM316.417 11.916V12.984C316.737 12.232 317.289 11.856 318.073 11.856C318.217 11.856 318.329 11.864 318.409 11.88V12.816C318.241 12.76 318.069 12.732 317.893 12.732C317.469 12.732 317.117 12.928 316.837 13.32C316.557 13.712 316.417 14.164 316.417 14.676V18H315.469L315.481 11.916H316.417ZM320.332 11.916V12.984C320.652 12.232 321.204 11.856 321.988 11.856C322.132 11.856 322.244 11.864 322.324 11.88V12.816C322.156 12.76 321.984 12.732 321.808 12.732C321.384 12.732 321.032 12.928 320.752 13.32C320.472 13.712 320.332 14.164 320.332 14.676V18H319.384L319.396 11.916H320.332ZM325.782 18.108C324.91 18.108 324.218 17.816 323.706 17.232C323.202 16.64 322.95 15.896 322.95 15C322.95 14.096 323.21 13.344 323.73 12.744C324.258 12.136 324.942 11.832 325.782 11.832C326.702 11.832 327.41 12.128 327.906 12.72C328.41 13.312 328.662 14.064 328.662 14.976C328.662 15.88 328.406 16.628 327.894 17.22C327.382 17.812 326.678 18.108 325.782 18.108ZM325.782 12.672C325.206 12.672 324.754 12.896 324.426 13.344C324.098 13.792 323.934 14.34 323.934 14.988C323.934 15.62 324.102 16.16 324.438 16.608C324.774 17.048 325.222 17.268 325.782 17.268C326.39 17.268 326.858 17.052 327.186 16.62C327.514 16.18 327.678 15.636 327.678 14.988C327.678 14.316 327.522 13.764 327.21 13.332C326.898 12.892 326.422 12.672 325.782 12.672ZM330.984 11.916V12.984C331.304 12.232 331.856 11.856 332.64 11.856C332.784 11.856 332.896 11.864 332.976 11.88V12.816C332.808 12.76 332.636 12.732 332.46 12.732C332.036 12.732 331.684 12.928 331.404 13.32C331.124 13.712 330.984 14.164 330.984 14.676V18H330.036L330.048 11.916H330.984Z" fill="black"/>
<path d="M281.896 36.172H283.732C284.244 36.172 284.636 36.056 284.908 35.824C285.188 35.584 285.328 35.236 285.328 34.78C285.328 34.324 285.172 33.968 284.86 33.712C284.556 33.456 284.12 33.328 283.552 33.328H281.896V36.172ZM281.896 29.74V32.5H283.192C283.84 32.5 284.32 32.364 284.632 32.092C284.944 31.82 285.1 31.468 285.1 31.036C285.1 30.66 284.952 30.352 284.656 30.112C284.368 29.864 283.936 29.74 283.36 29.74H281.896ZM280.924 28.912H283.36C284.192 28.912 284.856 29.104 285.352 29.488C285.856 29.872 286.108 30.388 286.108 31.036C286.108 31.5 285.976 31.904 285.712 32.248C285.456 32.584 285.124 32.796 284.716 32.884C285.164 32.956 285.544 33.16 285.856 33.496C286.176 33.824 286.336 34.272 286.336 34.84C286.336 35.488 286.12 36.012 285.688 36.412C285.264 36.804 284.66 37 283.876 37H280.924V28.912ZM287.779 37V30.916H288.727V37H287.779ZM287.803 29.452C287.691 29.332 287.635 29.184 287.635 29.008C287.635 28.832 287.691 28.684 287.803 28.564C287.923 28.444 288.071 28.384 288.247 28.384C288.423 28.384 288.571 28.444 288.691 28.564C288.811 28.684 288.871 28.832 288.871 29.008C288.871 29.184 288.811 29.332 288.691 29.452C288.571 29.564 288.423 29.62 288.247 29.62C288.071 29.62 287.923 29.564 287.803 29.452ZM293.808 34.192H292.752C292.24 34.192 291.856 34.292 291.6 34.492C291.344 34.692 291.216 34.944 291.216 35.248C291.216 35.552 291.316 35.8 291.516 35.992C291.716 36.176 292.008 36.268 292.392 36.268C292.824 36.268 293.168 36.148 293.424 35.908C293.68 35.66 293.808 35.348 293.808 34.972V34.192ZM290.664 32.188V31.24C291.12 30.96 291.72 30.82 292.464 30.82C293.992 30.82 294.756 31.596 294.756 33.148V37H293.82V36.28C293.508 36.8 292.94 37.06 292.116 37.06C291.548 37.06 291.088 36.892 290.736 36.556C290.392 36.22 290.22 35.796 290.22 35.284C290.22 34.7 290.44 34.248 290.88 33.928C291.328 33.6 291.936 33.436 292.704 33.436H293.808V33.124C293.808 32.644 293.7 32.284 293.484 32.044C293.268 31.796 292.904 31.672 292.392 31.672C291.744 31.672 291.168 31.844 290.664 32.188ZM299.751 31.12V32.02C299.383 31.796 298.879 31.684 298.239 31.684C297.919 31.684 297.663 31.76 297.471 31.912C297.287 32.056 297.195 32.244 297.195 32.476C297.195 32.62 297.223 32.748 297.279 32.86C297.335 32.964 297.443 33.068 297.603 33.172C297.771 33.276 297.891 33.348 297.963 33.388C298.043 33.42 298.211 33.492 298.467 33.604C298.979 33.812 299.379 34.048 299.667 34.312C299.955 34.576 300.099 34.932 300.099 35.38C300.099 35.9 299.915 36.312 299.547 36.616C299.187 36.92 298.691 37.072 298.059 37.072C297.323 37.072 296.727 36.948 296.271 36.7V35.776C296.807 36.096 297.383 36.256 297.999 36.256C298.367 36.256 298.647 36.184 298.839 36.04C299.031 35.896 299.127 35.7 299.127 35.452C299.127 35.164 299.019 34.94 298.803 34.78C298.595 34.62 298.243 34.44 297.747 34.24C297.291 34.064 296.923 33.844 296.643 33.58C296.371 33.316 296.235 32.96 296.235 32.512C296.235 32.008 296.423 31.608 296.799 31.312C297.183 31.008 297.659 30.856 298.227 30.856C298.859 30.856 299.367 30.944 299.751 31.12Z" fill="black"/>
<path d="M287.212 47.912L284.392 56H283.168L280.432 47.912H281.476L282.532 51.116L283.792 55.124C284.104 54.116 284.536 52.78 285.088 51.116L286.168 47.912H287.212ZM291.793 53.192H290.737C290.225 53.192 289.841 53.292 289.585 53.492C289.329 53.692 289.201 53.944 289.201 54.248C289.201 54.552 289.301 54.8 289.501 54.992C289.701 55.176 289.993 55.268 290.377 55.268C290.809 55.268 291.153 55.148 291.409 54.908C291.665 54.66 291.793 54.348 291.793 53.972V53.192ZM288.649 51.188V50.24C289.105 49.96 289.705 49.82 290.449 49.82C291.977 49.82 292.741 50.596 292.741 52.148V56H291.805V55.28C291.493 55.8 290.925 56.06 290.101 56.06C289.533 56.06 289.073 55.892 288.721 55.556C288.377 55.22 288.205 54.796 288.205 54.284C288.205 53.7 288.425 53.248 288.865 52.928C289.313 52.6 289.921 52.436 290.689 52.436H291.793V52.124C291.793 51.644 291.685 51.284 291.469 51.044C291.253 50.796 290.889 50.672 290.377 50.672C289.729 50.672 289.153 50.844 288.649 51.188ZM295.359 49.916V50.984C295.679 50.232 296.231 49.856 297.015 49.856C297.159 49.856 297.271 49.864 297.351 49.88V50.816C297.183 50.76 297.011 50.732 296.835 50.732C296.411 50.732 296.059 50.928 295.779 51.32C295.499 51.712 295.359 52.164 295.359 52.676V56H294.411L294.423 49.916H295.359ZM298.385 56V49.916H299.333V56H298.385ZM298.409 48.452C298.297 48.332 298.241 48.184 298.241 48.008C298.241 47.832 298.297 47.684 298.409 47.564C298.529 47.444 298.677 47.384 298.853 47.384C299.029 47.384 299.177 47.444 299.297 47.564C299.417 47.684 299.477 47.832 299.477 48.008C299.477 48.184 299.417 48.332 299.297 48.452C299.177 48.564 299.029 48.62 298.853 48.62C298.677 48.62 298.529 48.564 298.409 48.452ZM304.414 53.192H303.358C302.846 53.192 302.462 53.292 302.206 53.492C301.95 53.692 301.822 53.944 301.822 54.248C301.822 54.552 301.922 54.8 302.122 54.992C302.322 55.176 302.614 55.268 302.998 55.268C303.43 55.268 303.774 55.148 304.03 54.908C304.286 54.66 304.414 54.348 304.414 53.972V53.192ZM301.27 51.188V50.24C301.726 49.96 302.326 49.82 303.07 49.82C304.598 49.82 305.362 50.596 305.362 52.148V56H304.426V55.28C304.114 55.8 303.546 56.06 302.722 56.06C302.154 56.06 301.694 55.892 301.342 55.556C300.998 55.22 300.826 54.796 300.826 54.284C300.826 53.7 301.046 53.248 301.486 52.928C301.934 52.6 302.542 52.436 303.31 52.436H304.414V52.124C304.414 51.644 304.306 51.284 304.09 51.044C303.874 50.796 303.51 50.672 302.998 50.672C302.35 50.672 301.774 50.844 301.27 51.188ZM307.98 49.916V50.972C308.34 50.212 308.98 49.832 309.9 49.832C310.492 49.832 310.964 50.012 311.316 50.372C311.668 50.732 311.844 51.212 311.844 51.812V56H310.896V52.064C310.896 51.616 310.78 51.276 310.548 51.044C310.324 50.804 310.028 50.684 309.66 50.684C309.204 50.684 308.808 50.86 308.472 51.212C308.144 51.564 307.98 52.052 307.98 52.676V56H307.044V49.916H307.98ZM314.148 52.988C314.156 53.644 314.356 54.192 314.748 54.632C315.14 55.064 315.696 55.28 316.416 55.28C316.88 55.28 317.312 55.148 317.712 54.884V55.784C317.328 56.016 316.856 56.132 316.296 56.132C315.336 56.132 314.572 55.828 314.004 55.22C313.444 54.604 313.164 53.856 313.164 52.976C313.164 52.112 313.444 51.368 314.004 50.744C314.572 50.12 315.344 49.808 316.32 49.808C316.84 49.808 317.304 49.92 317.712 50.144V51.044C317.344 50.796 316.912 50.672 316.416 50.672C315.728 50.672 315.176 50.896 314.76 51.344C314.352 51.784 314.148 52.332 314.148 52.988ZM323.049 52.568V52.328C323.049 51.824 322.913 51.424 322.641 51.128C322.369 50.824 321.993 50.672 321.513 50.672C321.057 50.672 320.669 50.836 320.349 51.164C320.029 51.492 319.841 51.96 319.785 52.568H323.049ZM323.613 54.8V55.688C323.141 55.936 322.565 56.06 321.885 56.06C320.965 56.06 320.221 55.78 319.653 55.22C319.093 54.652 318.813 53.904 318.813 52.976C318.813 52.008 319.065 51.244 319.569 50.684C320.073 50.124 320.721 49.844 321.513 49.844C322.273 49.844 322.877 50.088 323.325 50.576C323.773 51.064 323.997 51.756 323.997 52.652C323.997 52.908 323.977 53.144 323.937 53.36H319.785C319.857 53.96 320.085 54.42 320.469 54.74C320.853 55.06 321.357 55.22 321.981 55.22C322.661 55.22 323.205 55.08 323.613 54.8Z" fill="black"/>
<line x1="226.607" y1="13.4948" x2="258.595" y2="13.4948" stroke="#DC8B8B" stroke-width="3" stroke-linecap="round"/>
<line x1="226.607" y1="33.4877" x2="258.595" y2="33.4877" stroke="#36AC34" stroke-width="3" stroke-linecap="round"/>
<line x1="226.607" y1="53.4807" x2="258.595" y2="53.4807" stroke="#92A2FA" stroke-width="3" stroke-linecap="round"/>
<g filter="url(#filter1_d_7_6)">
<path d="M53.3417 324.211V316.759H56.1137V324.193C56.1137 325.777 55.6697 326.989 54.7817 327.829C53.8937 328.657 52.6937 329.071 51.1817 329.071C49.6937 329.071 48.4997 328.657 47.5997 327.829C46.6997 327.001 46.2497 325.831 46.2497 324.319V316.759H49.0217V324.301C49.0217 325.801 49.7417 326.551 51.1817 326.551C52.6217 326.551 53.3417 325.771 53.3417 324.211ZM60.9012 319.765V321.313C61.1292 320.809 61.4772 320.413 61.9452 320.125C62.4252 319.825 62.9952 319.675 63.6552 319.675C64.5912 319.675 65.3232 319.957 65.8512 320.521C66.3792 321.073 66.6432 321.889 66.6432 322.969V328.891H64.0152V323.455C64.0152 322.915 63.8892 322.507 63.6372 322.231C63.3852 321.943 63.0312 321.799 62.5752 321.799C62.0952 321.799 61.6932 321.991 61.3692 322.375C61.0572 322.747 60.9012 323.311 60.9012 324.067V328.891H58.2732V319.765H60.9012ZM72.9086 326.803C73.5086 326.803 73.9946 326.569 74.3666 326.101C74.7386 325.633 74.9246 325.009 74.9246 324.229C74.9246 323.473 74.7206 322.885 74.3126 322.465C73.9166 322.045 73.4426 321.835 72.8906 321.835C72.3386 321.835 71.8706 322.057 71.4866 322.501C71.1146 322.945 70.9286 323.563 70.9286 324.355C70.9286 325.087 71.1206 325.681 71.5046 326.137C71.8886 326.581 72.3566 326.803 72.9086 326.803ZM74.9246 316.165H77.5526V328.891H74.9246V327.469C74.3126 328.489 73.4006 328.999 72.1886 328.999C71.0006 328.999 70.0466 328.537 69.3266 327.613C68.6186 326.689 68.2646 325.585 68.2646 324.301C68.2646 322.861 68.6366 321.727 69.3806 320.899C70.1246 320.071 71.0666 319.657 72.2066 319.657C73.3946 319.657 74.3006 320.161 74.9246 321.169V316.165ZM84.9925 323.491V323.275C84.9085 322.207 84.4405 321.673 83.5885 321.673C83.1685 321.673 82.7965 321.829 82.4725 322.141C82.1485 322.441 81.9325 322.891 81.8245 323.491H84.9925ZM86.8825 326.173V328.369C86.2585 328.777 85.3045 328.981 84.0205 328.981C82.5205 328.981 81.3505 328.549 80.5105 327.685C79.6825 326.809 79.2685 325.687 79.2685 324.319C79.2685 322.867 79.6705 321.733 80.4745 320.917C81.2905 320.089 82.2925 319.675 83.4805 319.675C84.7045 319.675 85.6705 320.035 86.3785 320.755C87.0865 321.463 87.4405 322.525 87.4405 323.941C87.4405 324.217 87.3925 324.691 87.2965 325.363H81.9325C82.1125 325.867 82.4245 326.257 82.8685 326.533C83.3125 326.809 83.8465 326.947 84.4705 326.947C85.3945 326.947 86.1985 326.689 86.8825 326.173ZM91.9261 319.765V321.457C92.0941 320.929 92.3701 320.509 92.7541 320.197C93.1501 319.873 93.6061 319.711 94.1221 319.711C94.4101 319.711 94.6381 319.735 94.8061 319.783V322.267C94.5181 322.135 94.1881 322.069 93.8161 322.069C93.2521 322.069 92.7961 322.279 92.4481 322.699C92.1001 323.107 91.9261 323.653 91.9261 324.337V328.891H89.2981L89.3161 319.765H91.9261ZM104.474 319.765V328.891H101.846V321.691H99.2363V328.891H96.6263V321.691H95.4383V319.765H96.6263V319.423C96.6263 318.319 96.9323 317.461 97.5443 316.849C98.1683 316.237 99.0263 315.931 100.118 315.931C101.294 315.931 102.428 316.183 103.52 316.687V318.811C102.38 318.295 101.39 318.037 100.55 318.037C100.106 318.037 99.7763 318.139 99.5603 318.343C99.3443 318.547 99.2363 318.907 99.2363 319.423V319.765H104.474ZM109.374 321.691V325.885C109.374 326.209 109.464 326.455 109.644 326.623C109.836 326.791 110.082 326.875 110.382 326.875C110.862 326.875 111.288 326.755 111.66 326.515V328.693C111.216 328.885 110.616 328.981 109.86 328.981C107.784 328.981 106.746 327.943 106.746 325.867V321.691H105.432V319.765H106.746V317.605H109.374V319.765H111.498V321.691H109.374ZM116.317 321.691V325.885C116.317 326.209 116.407 326.455 116.587 326.623C116.779 326.791 117.025 326.875 117.325 326.875C117.805 326.875 118.231 326.755 118.603 326.515V328.693C118.159 328.885 117.559 328.981 116.803 328.981C114.727 328.981 113.689 327.943 113.689 325.867V321.691H112.375V319.765H113.689V317.605H116.317V319.765H118.441V321.691H116.317ZM120.308 328.891V319.765H122.936V328.891H120.308ZM120.542 318.199C120.242 317.899 120.092 317.539 120.092 317.119C120.092 316.699 120.242 316.339 120.542 316.039C120.842 315.739 121.202 315.589 121.622 315.589C122.042 315.589 122.402 315.739 122.702 316.039C123.002 316.339 123.152 316.699 123.152 317.119C123.152 317.539 123.002 317.899 122.702 318.199C122.402 318.499 122.042 318.649 121.622 318.649C121.202 318.649 120.842 318.499 120.542 318.199ZM127.821 319.765V321.313C128.049 320.809 128.397 320.413 128.865 320.125C129.345 319.825 129.915 319.675 130.575 319.675C131.511 319.675 132.243 319.957 132.771 320.521C133.299 321.073 133.563 321.889 133.563 322.969V328.891H130.935V323.455C130.935 322.915 130.809 322.507 130.557 322.231C130.305 321.943 129.951 321.799 129.495 321.799C129.015 321.799 128.613 321.991 128.289 322.375C127.977 322.747 127.821 323.311 127.821 324.067V328.891H125.193V319.765H127.821ZM139.685 326.497C140.249 326.497 140.687 326.287 140.999 325.867C141.323 325.435 141.485 324.919 141.485 324.319C141.485 322.687 140.891 321.871 139.703 321.871C139.175 321.871 138.761 322.075 138.461 322.483C138.161 322.891 138.011 323.455 138.011 324.175C138.011 324.931 138.155 325.507 138.443 325.903C138.731 326.299 139.145 326.497 139.685 326.497ZM141.485 319.765H144.095V328.009C144.095 329.473 143.657 330.571 142.781 331.303C141.905 332.047 140.807 332.419 139.487 332.419C138.203 332.419 137.081 332.191 136.121 331.735V329.053C136.961 329.725 137.993 330.061 139.217 330.061C140.009 330.061 140.585 329.893 140.945 329.557C141.305 329.221 141.485 328.693 141.485 327.973V327.361C140.957 328.177 140.117 328.585 138.965 328.585C137.957 328.585 137.087 328.213 136.355 327.469C135.635 326.725 135.275 325.621 135.275 324.157C135.275 322.861 135.623 321.793 136.319 320.953C137.027 320.101 137.951 319.675 139.091 319.675C140.171 319.675 140.969 320.107 141.485 320.971V319.765ZM55.0517 345.759V347.721L49.5797 355.659H55.2677V357.891H46.2497V355.857L51.6857 347.991H46.3577V345.759H55.0517ZM61.4614 358.035C60.0334 358.035 58.9294 357.609 58.1494 356.757C57.3694 355.893 56.9794 354.789 56.9794 353.445C56.9794 352.041 57.3874 350.889 58.2034 349.989C59.0194 349.077 60.1054 348.621 61.4614 348.621C62.8774 348.621 63.9754 349.059 64.7554 349.935C65.5354 350.811 65.9254 351.927 65.9254 353.283C65.9254 354.663 65.5294 355.803 64.7374 356.703C63.9574 357.591 62.8654 358.035 61.4614 358.035ZM61.4434 350.691C60.8674 350.691 60.4354 350.937 60.1474 351.429C59.8594 351.921 59.7154 352.557 59.7154 353.337C59.7154 354.117 59.8594 354.759 60.1474 355.263C60.4474 355.755 60.8914 356.001 61.4794 356.001C62.0554 356.001 62.4814 355.761 62.7574 355.281C63.0454 354.789 63.1894 354.153 63.1894 353.373C63.1894 351.585 62.6074 350.691 61.4434 350.691ZM70.2703 348.765V350.313C70.4983 349.809 70.8463 349.413 71.3143 349.125C71.7943 348.825 72.3643 348.675 73.0243 348.675C73.9603 348.675 74.6923 348.957 75.2203 349.521C75.7483 350.073 76.0123 350.889 76.0123 351.969V357.891H73.3843V352.455C73.3843 351.915 73.2583 351.507 73.0063 351.231C72.7543 350.943 72.4003 350.799 71.9443 350.799C71.4643 350.799 71.0623 350.991 70.7383 351.375C70.4263 351.747 70.2703 352.311 70.2703 353.067V357.891H67.6423V348.765H70.2703ZM83.3577 352.491V352.275C83.2737 351.207 82.8057 350.673 81.9537 350.673C81.5337 350.673 81.1617 350.829 80.8377 351.141C80.5137 351.441 80.2977 351.891 80.1897 352.491H83.3577ZM85.2477 355.173V357.369C84.6237 357.777 83.6697 357.981 82.3857 357.981C80.8857 357.981 79.7157 357.549 78.8757 356.685C78.0477 355.809 77.6337 354.687 77.6337 353.319C77.6337 351.867 78.0357 350.733 78.8397 349.917C79.6557 349.089 80.6577 348.675 81.8457 348.675C83.0697 348.675 84.0357 349.035 84.7437 349.755C85.4517 350.463 85.8057 351.525 85.8057 352.941C85.8057 353.217 85.7577 353.691 85.6617 354.363H80.2977C80.4777 354.867 80.7897 355.257 81.2337 355.533C81.6777 355.809 82.2117 355.947 82.8357 355.947C83.7597 355.947 84.5637 355.689 85.2477 355.173Z" fill="black"/>
</g>
<g filter="url(#filter2_d_7_6)">
<path d="M385.771 322.789C385.771 320.929 386.305 319.429 387.373 318.289C388.453 317.137 389.887 316.561 391.675 316.561C393.475 316.561 394.909 317.131 395.977 318.271C397.045 319.411 397.579 320.917 397.579 322.789C397.579 324.649 397.039 326.155 395.959 327.307C394.891 328.447 393.463 329.017 391.675 329.017C389.875 329.017 388.441 328.447 387.373 327.307C386.305 326.167 385.771 324.661 385.771 322.789ZM389.533 320.089C389.005 320.749 388.741 321.649 388.741 322.789C388.741 323.929 389.005 324.835 389.533 325.507C390.061 326.167 390.775 326.497 391.675 326.497C392.575 326.497 393.289 326.167 393.817 325.507C394.345 324.835 394.609 323.929 394.609 322.789C394.609 321.649 394.345 320.749 393.817 320.089C393.289 319.417 392.575 319.081 391.675 319.081C390.775 319.081 390.061 319.417 389.533 320.089ZM401.761 328.891L398.395 319.765H401.149L402.337 323.653C402.517 324.253 402.673 324.823 402.805 325.363C402.937 325.891 403.021 326.275 403.057 326.515L403.129 326.857C403.237 326.077 403.507 325.009 403.939 323.653L405.163 319.765H407.863L404.461 328.891H401.761ZM414.309 323.491V323.275C414.225 322.207 413.757 321.673 412.905 321.673C412.485 321.673 412.113 321.829 411.789 322.141C411.465 322.441 411.249 322.891 411.141 323.491H414.309ZM416.199 326.173V328.369C415.575 328.777 414.621 328.981 413.337 328.981C411.837 328.981 410.667 328.549 409.827 327.685C408.999 326.809 408.585 325.687 408.585 324.319C408.585 322.867 408.987 321.733 409.791 320.917C410.607 320.089 411.609 319.675 412.797 319.675C414.021 319.675 414.987 320.035 415.695 320.755C416.403 321.463 416.757 322.525 416.757 323.941C416.757 324.217 416.709 324.691 416.613 325.363H411.249C411.429 325.867 411.741 326.257 412.185 326.533C412.629 326.809 413.163 326.947 413.787 326.947C414.711 326.947 415.515 326.689 416.199 326.173ZM421.243 319.765V321.457C421.411 320.929 421.687 320.509 422.071 320.197C422.467 319.873 422.923 319.711 423.439 319.711C423.727 319.711 423.955 319.735 424.123 319.783V322.267C423.835 322.135 423.505 322.069 423.133 322.069C422.569 322.069 422.113 322.279 421.765 322.699C421.417 323.107 421.243 323.653 421.243 324.337V328.891H418.615L418.633 319.765H421.243ZM433.791 319.765V328.891H431.163V321.691H428.553V328.891H425.943V321.691H424.755V319.765H425.943V319.423C425.943 318.319 426.249 317.461 426.861 316.849C427.485 316.237 428.343 315.931 429.435 315.931C430.611 315.931 431.745 316.183 432.837 316.687V318.811C431.697 318.295 430.707 318.037 429.867 318.037C429.423 318.037 429.093 318.139 428.877 318.343C428.661 318.547 428.553 318.907 428.553 319.423V319.765H433.791ZM438.69 321.691V325.885C438.69 326.209 438.78 326.455 438.96 326.623C439.152 326.791 439.398 326.875 439.698 326.875C440.178 326.875 440.604 326.755 440.976 326.515V328.693C440.532 328.885 439.932 328.981 439.176 328.981C437.1 328.981 436.062 327.943 436.062 325.867V321.691H434.748V319.765H436.062V317.605H438.69V319.765H440.814V321.691H438.69ZM445.634 321.691V325.885C445.634 326.209 445.724 326.455 445.904 326.623C446.096 326.791 446.342 326.875 446.642 326.875C447.122 326.875 447.548 326.755 447.92 326.515V328.693C447.476 328.885 446.876 328.981 446.12 328.981C444.044 328.981 443.006 327.943 443.006 325.867V321.691H441.692V319.765H443.006V317.605H445.634V319.765H447.758V321.691H445.634ZM449.625 328.891V319.765H452.253V328.891H449.625ZM449.859 318.199C449.559 317.899 449.409 317.539 449.409 317.119C449.409 316.699 449.559 316.339 449.859 316.039C450.159 315.739 450.519 315.589 450.939 315.589C451.359 315.589 451.719 315.739 452.019 316.039C452.319 316.339 452.469 316.699 452.469 317.119C452.469 317.539 452.319 317.899 452.019 318.199C451.719 318.499 451.359 318.649 450.939 318.649C450.519 318.649 450.159 318.499 449.859 318.199ZM457.138 319.765V321.313C457.366 320.809 457.714 320.413 458.182 320.125C458.662 319.825 459.232 319.675 459.892 319.675C460.828 319.675 461.56 319.957 462.088 320.521C462.616 321.073 462.88 321.889 462.88 322.969V328.891H460.252V323.455C460.252 322.915 460.126 322.507 459.874 322.231C459.622 321.943 459.268 321.799 458.812 321.799C458.332 321.799 457.93 321.991 457.606 322.375C457.294 322.747 457.138 323.311 457.138 324.067V328.891H454.51V319.765H457.138ZM469.001 326.497C469.565 326.497 470.003 326.287 470.315 325.867C470.639 325.435 470.801 324.919 470.801 324.319C470.801 322.687 470.207 321.871 469.019 321.871C468.491 321.871 468.077 322.075 467.777 322.483C467.477 322.891 467.327 323.455 467.327 324.175C467.327 324.931 467.471 325.507 467.759 325.903C468.047 326.299 468.461 326.497 469.001 326.497ZM470.801 319.765H473.411V328.009C473.411 329.473 472.973 330.571 472.097 331.303C471.221 332.047 470.123 332.419 468.803 332.419C467.519 332.419 466.397 332.191 465.437 331.735V329.053C466.277 329.725 467.309 330.061 468.533 330.061C469.325 330.061 469.901 329.893 470.261 329.557C470.621 329.221 470.801 328.693 470.801 327.973V327.361C470.273 328.177 469.433 328.585 468.281 328.585C467.273 328.585 466.403 328.213 465.671 327.469C464.951 326.725 464.591 325.621 464.591 324.157C464.591 322.861 464.939 321.793 465.635 320.953C466.343 320.101 467.267 319.675 468.407 319.675C469.487 319.675 470.285 320.107 470.801 320.971V319.765ZM394.933 345.759V347.721L389.461 355.659H395.149V357.891H386.131V355.857L391.567 347.991H386.239V345.759H394.933ZM401.342 358.035C399.914 358.035 398.81 357.609 398.03 356.757C397.25 355.893 396.86 354.789 396.86 353.445C396.86 352.041 397.268 350.889 398.084 349.989C398.9 349.077 399.986 348.621 401.342 348.621C402.758 348.621 403.856 349.059 404.636 349.935C405.416 350.811 405.806 351.927 405.806 353.283C405.806 354.663 405.41 355.803 404.618 356.703C403.838 357.591 402.746 358.035 401.342 358.035ZM401.324 350.691C400.748 350.691 400.316 350.937 400.028 351.429C399.74 351.921 399.596 352.557 399.596 353.337C399.596 354.117 399.74 354.759 400.028 355.263C400.328 355.755 400.772 356.001 401.36 356.001C401.936 356.001 402.362 355.761 402.638 355.281C402.926 354.789 403.07 354.153 403.07 353.373C403.07 351.585 402.488 350.691 401.324 350.691ZM410.151 348.765V350.313C410.379 349.809 410.727 349.413 411.195 349.125C411.675 348.825 412.245 348.675 412.905 348.675C413.841 348.675 414.573 348.957 415.101 349.521C415.629 350.073 415.893 350.889 415.893 351.969V357.891H413.265V352.455C413.265 351.915 413.139 351.507 412.887 351.231C412.635 350.943 412.281 350.799 411.825 350.799C411.345 350.799 410.943 350.991 410.619 351.375C410.307 351.747 410.151 352.311 410.151 353.067V357.891H407.523V348.765H410.151ZM423.239 352.491V352.275C423.155 351.207 422.687 350.673 421.835 350.673C421.415 350.673 421.043 350.829 420.719 351.141C420.395 351.441 420.179 351.891 420.071 352.491H423.239ZM425.129 355.173V357.369C424.505 357.777 423.551 357.981 422.267 357.981C420.767 357.981 419.597 357.549 418.757 356.685C417.929 355.809 417.515 354.687 417.515 353.319C417.515 351.867 417.917 350.733 418.721 349.917C419.537 349.089 420.539 348.675 421.727 348.675C422.951 348.675 423.917 349.035 424.625 349.755C425.333 350.463 425.687 351.525 425.687 352.941C425.687 353.217 425.639 353.691 425.543 354.363H420.179C420.359 354.867 420.671 355.257 421.115 355.533C421.559 355.809 422.093 355.947 422.717 355.947C423.641 355.947 424.445 355.689 425.129 355.173Z" fill="black"/>
</g>
<path d="M294.316 440.52V438.084L292 431.568H293.092L294.256 435.036C294.32 435.228 294.4 435.456 294.496 435.72C294.592 435.984 294.68 436.244 294.76 436.5C294.848 436.748 294.912 436.952 294.952 437.112H295C295.456 436.608 295.812 436.08 296.068 435.528C296.332 434.968 296.516 434.364 296.62 433.716C296.732 433.06 296.788 432.344 296.788 431.568H297.832C297.832 432.392 297.76 433.168 297.616 433.896C297.472 434.616 297.22 435.316 296.86 435.996C296.508 436.668 296.012 437.352 295.372 438.048V440.52H294.316Z" fill="black"/>
<defs>
<filter id="filter0_d_7_6" x="199.116" y="0" width="161.944" height="66.9772" filterUnits="userSpaceOnUse" color-interpolation-filters="sRGB">
<feFlood flood-opacity="0" result="BackgroundImageFix"/>
<feColorMatrix in="SourceAlpha" type="matrix" values="0 0 0 0 0 0 0 0 0 0 0 0 0 0 0 0 0 0 127 0" result="hardAlpha"/>
<feOffset dy="1"/>
<feGaussianBlur stdDeviation="0.5"/>
<feComposite in2="hardAlpha" operator="out"/>
<feColorMatrix type="matrix" values="0 0 0 0 0 0 0 0 0 0 0 0 0 0 0 0 0 0 0.5 0"/>
<feBlend mode="normal" in2="BackgroundImageFix" result="effect1_dropShadow_7_6"/>
<feBlend mode="normal" in="SourceGraphic" in2="effect1_dropShadow_7_6" result="shape"/>
</filter>
<filter id="filter1_d_7_6" x="45.2498" y="315.589" width="99.8447" height="44.446" filterUnits="userSpaceOnUse" color-interpolation-filters="sRGB">
<feFlood flood-opacity="0" result="BackgroundImageFix"/>
<feColorMatrix in="SourceAlpha" type="matrix" values="0 0 0 0 0 0 0 0 0 0 0 0 0 0 0 0 0 0 127 0" result="hardAlpha"/>
<feOffset dy="1"/>
<feGaussianBlur stdDeviation="0.5"/>
<feComposite in2="hardAlpha" operator="out"/>
<feColorMatrix type="matrix" values="0 0 0 0 0 0 0 0 0 0 0 0 0 0 0 0 0 0 0.5 0"/>
<feBlend mode="normal" in2="BackgroundImageFix" result="effect1_dropShadow_7_6"/>
<feBlend mode="normal" in="SourceGraphic" in2="effect1_dropShadow_7_6" result="shape"/>
</filter>
<filter id="filter2_d_7_6" x="384.771" y="315.589" width="89.6403" height="44.446" filterUnits="userSpaceOnUse" color-interpolation-filters="sRGB">
<feFlood flood-opacity="0" result="BackgroundImageFix"/>
<feColorMatrix in="SourceAlpha" type="matrix" values="0 0 0 0 0 0 0 0 0 0 0 0 0 0 0 0 0 0 127 0" result="hardAlpha"/>
<feOffset dy="1"/>
<feGaussianBlur stdDeviation="0.5"/>
<feComposite in2="hardAlpha" operator="out"/>
<feColorMatrix type="matrix" values="0 0 0 0 0 0 0 0 0 0 0 0 0 0 0 0 0 0 0.5 0"/>
<feBlend mode="normal" in2="BackgroundImageFix" result="effect1_dropShadow_7_6"/>
<feBlend mode="normal" in="SourceGraphic" in2="effect1_dropShadow_7_6" result="shape"/>
</filter>
</defs>
</svg>
