<svg width="407" height="376" viewBox="0 0 407 376" fill="none" xmlns="http://www.w3.org/2000/svg">
<g filter="url(#filter0_d_2_45)">
<path d="M66 90C66 76.1929 77.1929 65 91 65H231V215H66V90Z" fill="url(#paint0_linear_2_45)"/>
<path d="M65.5 90C65.5 75.9167 76.9167 64.5 91 64.5H231V65.5H91C77.469 65.5 66.5 76.469 66.5 90H65.5ZM231 215H66H231ZM65.5 215V90C65.5 75.9167 76.9167 64.5 91 64.5V65.5C77.469 65.5 66.5 76.469 66.5 90V215H65.5ZM231 65V215V65Z" fill="#9BE788"/>
<mask id="path-3-inside-1_2_45" fill="white">
<path d="M66 215H231V365H91C77.1929 365 66 353.807 66 340V215Z"/>
</mask>
<path d="M66 215H231V365H91C77.1929 365 66 353.807 66 340V215Z" fill="url(#paint1_linear_2_45)"/>
<path d="M66 215H231H66ZM231 366H91C76.6406 366 65 354.359 65 340H67C67 353.255 77.7452 364 91 364H231V366ZM91 366C76.6406 366 65 354.359 65 340V215H67V340C67 353.255 77.7452 364 91 364V366ZM231 215V365V215Z" fill="#FB1414" mask="url(#path-3-inside-1_2_45)"/>
<mask id="path-5-inside-2_2_45" fill="white">
<path d="M231 215H396V340C396 353.807 384.807 365 371 365H231V215Z"/>
</mask>
<path d="M231 215H396V340C396 353.807 384.807 365 371 365H231V215Z" fill="url(#paint2_linear_2_45)"/>
<path d="M231 215H396H231ZM397 340C397 354.359 385.359 366 371 366H231V364H371C384.255 364 395 353.255 395 340H397ZM231 365V215V365ZM397 215V340C397 354.359 385.359 366 371 366V364C384.255 364 395 353.255 395 340V215H397Z" fill="#9BE788" mask="url(#path-5-inside-2_2_45)"/>
<mask id="path-7-inside-3_2_45" fill="white">
<path d="M231 65H371C384.807 65 396 76.1929 396 90V215H231V65Z"/>
</mask>
<path d="M231 65H371C384.807 65 396 76.1929 396 90V215H231V65Z" fill="url(#paint3_linear_2_45)"/>
<path d="M231 64H371C385.359 64 397 75.6406 397 90H395C395 76.7452 384.255 66 371 66H231V64ZM396 215H231H396ZM231 215V65V215ZM371 64C385.359 64 397 75.6406 397 90V215H395V90C395 76.7452 384.255 66 371 66V64Z" fill="#FB1414" mask="url(#path-7-inside-3_2_45)"/>
<path d="M96.7644 128.52V131H93.4844V142H90.3844V131H87.0844V128.52H96.7644ZM101.463 131.86V133.74C101.65 133.153 101.957 132.687 102.383 132.34C102.823 131.98 103.33 131.8 103.903 131.8C104.223 131.8 104.477 131.827 104.663 131.88V134.64C104.343 134.493 103.977 134.42 103.563 134.42C102.937 134.42 102.43 134.653 102.043 135.12C101.657 135.573 101.463 136.18 101.463 136.94V142H98.5433L98.5633 131.86H101.463ZM112.246 131.86H115.166V142H112.246V140.38C111.712 141.513 110.686 142.08 109.166 142.08C108.126 142.08 107.312 141.793 106.726 141.22C106.152 140.633 105.866 139.773 105.866 138.64V131.86H108.786V137.98C108.786 139.167 109.306 139.76 110.346 139.76C111.612 139.76 112.246 138.913 112.246 137.22V131.86ZM123.427 136V135.76C123.334 134.573 122.814 133.98 121.867 133.98C121.401 133.98 120.987 134.153 120.627 134.5C120.267 134.833 120.027 135.333 119.907 136H123.427ZM125.527 138.98V141.42C124.834 141.873 123.774 142.1 122.347 142.1C120.681 142.1 119.381 141.62 118.447 140.66C117.527 139.687 117.067 138.44 117.067 136.92C117.067 135.307 117.514 134.047 118.407 133.14C119.314 132.22 120.427 131.76 121.747 131.76C123.107 131.76 124.181 132.16 124.967 132.96C125.754 133.747 126.147 134.927 126.147 136.5C126.147 136.807 126.094 137.333 125.987 138.08H120.027C120.227 138.64 120.574 139.073 121.067 139.38C121.561 139.687 122.154 139.84 122.847 139.84C123.874 139.84 124.767 139.553 125.527 138.98ZM136.411 135.2H137.431C139.058 135.2 139.871 134.46 139.871 132.98C139.871 131.647 139.118 130.98 137.611 130.98H136.411V135.2ZM133.331 128.52H137.971C139.465 128.52 140.671 128.94 141.591 129.78C142.525 130.62 142.991 131.687 142.991 132.98C142.991 134.46 142.505 135.607 141.531 136.42C140.571 137.233 139.385 137.64 137.971 137.64H136.411V142H133.331V128.52ZM148.981 142.16C147.394 142.16 146.167 141.687 145.301 140.74C144.434 139.78 144.001 138.553 144.001 137.06C144.001 135.5 144.454 134.22 145.361 133.22C146.267 132.207 147.474 131.7 148.981 131.7C150.554 131.7 151.774 132.187 152.641 133.16C153.507 134.133 153.941 135.373 153.941 136.88C153.941 138.413 153.501 139.68 152.621 140.68C151.754 141.667 150.541 142.16 148.981 142.16ZM148.961 134C148.321 134 147.841 134.273 147.521 134.82C147.201 135.367 147.041 136.073 147.041 136.94C147.041 137.807 147.201 138.52 147.521 139.08C147.854 139.627 148.347 139.9 149.001 139.9C149.641 139.9 150.114 139.633 150.421 139.1C150.741 138.553 150.901 137.847 150.901 136.98C150.901 134.993 150.254 134 148.961 134ZM162.248 132.16V134.66C161.542 134.247 160.715 134.04 159.768 134.04C159.422 134.04 159.155 134.113 158.968 134.26C158.782 134.393 158.688 134.567 158.688 134.78C158.688 134.9 158.722 135.013 158.788 135.12C158.855 135.227 158.962 135.327 159.108 135.42C159.268 135.513 159.415 135.6 159.548 135.68C159.695 135.747 159.888 135.833 160.128 135.94C160.382 136.047 160.582 136.14 160.728 136.22C161.342 136.54 161.835 136.913 162.208 137.34C162.582 137.753 162.768 138.287 162.768 138.94C162.768 139.94 162.408 140.713 161.688 141.26C160.968 141.807 160.015 142.08 158.828 142.08C157.602 142.08 156.575 141.873 155.748 141.46V138.86C156.668 139.5 157.642 139.82 158.668 139.82C159.402 139.82 159.768 139.587 159.768 139.12C159.768 139 159.735 138.887 159.668 138.78C159.602 138.673 159.488 138.573 159.328 138.48C159.168 138.387 159.022 138.313 158.888 138.26C158.755 138.193 158.562 138.107 158.308 138C158.055 137.893 157.862 137.807 157.728 137.74C156.382 137.1 155.708 136.14 155.708 134.86C155.708 133.873 156.082 133.107 156.828 132.56C157.588 132.013 158.528 131.74 159.648 131.74C160.688 131.74 161.555 131.88 162.248 132.16ZM164.659 142V131.86H167.579V142H164.659ZM164.919 130.12C164.586 129.787 164.419 129.387 164.419 128.92C164.419 128.453 164.586 128.053 164.919 127.72C165.253 127.387 165.653 127.22 166.119 127.22C166.586 127.22 166.986 127.387 167.319 127.72C167.653 128.053 167.819 128.453 167.819 128.92C167.819 129.387 167.653 129.787 167.319 130.12C166.986 130.453 166.586 130.62 166.119 130.62C165.653 130.62 165.253 130.453 164.919 130.12ZM173.467 134V138.66C173.467 139.02 173.567 139.293 173.767 139.48C173.98 139.667 174.253 139.76 174.587 139.76C175.12 139.76 175.593 139.627 176.007 139.36V141.78C175.513 141.993 174.847 142.1 174.007 142.1C171.7 142.1 170.547 140.947 170.547 138.64V134H169.087V131.86H170.547V129.46H173.467V131.86H175.827V134H173.467ZM177.902 142V131.86H180.822V142H177.902ZM178.162 130.12C177.828 129.787 177.662 129.387 177.662 128.92C177.662 128.453 177.828 128.053 178.162 127.72C178.495 127.387 178.895 127.22 179.362 127.22C179.828 127.22 180.228 127.387 180.562 127.72C180.895 128.053 181.062 128.453 181.062 128.92C181.062 129.387 180.895 129.787 180.562 130.12C180.228 130.453 179.828 130.62 179.362 130.62C178.895 130.62 178.495 130.453 178.162 130.12ZM185.969 142L182.229 131.86H185.289L186.609 136.18C186.809 136.847 186.982 137.48 187.129 138.08C187.276 138.667 187.369 139.093 187.409 139.36L187.489 139.74C187.609 138.873 187.909 137.687 188.389 136.18L189.749 131.86H192.749L188.969 142H185.969ZM199.912 136V135.76C199.818 134.573 199.298 133.98 198.352 133.98C197.885 133.98 197.472 134.153 197.112 134.5C196.752 134.833 196.512 135.333 196.392 136H199.912ZM202.012 138.98V141.42C201.318 141.873 200.258 142.1 198.832 142.1C197.165 142.1 195.865 141.62 194.932 140.66C194.012 139.687 193.552 138.44 193.552 136.92C193.552 135.307 193.998 134.047 194.892 133.14C195.798 132.22 196.912 131.76 198.232 131.76C199.592 131.76 200.665 132.16 201.452 132.96C202.238 133.747 202.632 134.927 202.632 136.5C202.632 136.807 202.578 137.333 202.472 138.08H196.512C196.712 138.64 197.058 139.073 197.552 139.38C198.045 139.687 198.638 139.84 199.332 139.84C200.358 139.84 201.252 139.553 202.012 138.98Z" fill="black"/>
<path d="M304.007 265.52V268H300.727V279H297.627V268H294.327V265.52H304.007ZM308.705 268.86V270.74C308.892 270.153 309.199 269.687 309.625 269.34C310.065 268.98 310.572 268.8 311.145 268.8C311.465 268.8 311.719 268.827 311.905 268.88V271.64C311.585 271.493 311.219 271.42 310.805 271.42C310.179 271.42 309.672 271.653 309.285 272.12C308.899 272.573 308.705 273.18 308.705 273.94V279H305.785L305.805 268.86H308.705ZM319.488 268.86H322.408V279H319.488V277.38C318.954 278.513 317.928 279.08 316.408 279.08C315.368 279.08 314.554 278.793 313.968 278.22C313.394 277.633 313.108 276.773 313.108 275.64V268.86H316.028V274.98C316.028 276.167 316.548 276.76 317.588 276.76C318.854 276.76 319.488 275.913 319.488 274.22V268.86ZM330.669 273V272.76C330.576 271.573 330.056 270.98 329.109 270.98C328.643 270.98 328.229 271.153 327.869 271.5C327.509 271.833 327.269 272.333 327.149 273H330.669ZM332.769 275.98V278.42C332.076 278.873 331.016 279.1 329.589 279.1C327.923 279.1 326.623 278.62 325.689 277.66C324.769 276.687 324.309 275.44 324.309 273.92C324.309 272.307 324.756 271.047 325.649 270.14C326.556 269.22 327.669 268.76 328.989 268.76C330.349 268.76 331.423 269.16 332.209 269.96C332.996 270.747 333.389 271.927 333.389 273.5C333.389 273.807 333.336 274.333 333.229 275.08H327.269C327.469 275.64 327.816 276.073 328.309 276.38C328.803 276.687 329.396 276.84 330.089 276.84C331.116 276.84 332.009 276.553 332.769 275.98ZM274.675 311V297.52H278.055L281.195 303.1C281.635 303.887 282.015 304.627 282.335 305.32C282.668 306 282.882 306.48 282.975 306.76L283.135 307.2C283.002 306.213 282.935 304.847 282.935 303.1V297.52H286.015V311H282.635L279.415 305.42C278.988 304.7 278.608 303.993 278.275 303.3C277.955 302.593 277.735 302.073 277.615 301.74L277.455 301.24C277.655 302.44 277.755 303.833 277.755 305.42V311H274.675ZM294.38 305V304.76C294.287 303.573 293.767 302.98 292.82 302.98C292.354 302.98 291.94 303.153 291.58 303.5C291.22 303.833 290.98 304.333 290.86 305H294.38ZM296.48 307.98V310.42C295.787 310.873 294.727 311.1 293.3 311.1C291.634 311.1 290.334 310.62 289.4 309.66C288.48 308.687 288.02 307.44 288.02 305.92C288.02 304.307 288.467 303.047 289.36 302.14C290.267 301.22 291.38 300.76 292.7 300.76C294.06 300.76 295.134 301.16 295.92 301.96C296.707 302.747 297.1 303.927 297.1 305.5C297.1 305.807 297.047 306.333 296.94 307.08H290.98C291.18 307.64 291.527 308.073 292.02 308.38C292.514 308.687 293.107 308.84 293.8 308.84C294.827 308.84 295.72 308.553 296.48 307.98ZM303.684 308.34C304.311 308.34 304.798 308.107 305.144 307.64C305.504 307.16 305.684 306.587 305.684 305.92C305.684 304.107 305.024 303.2 303.704 303.2C303.118 303.2 302.658 303.427 302.324 303.88C301.991 304.333 301.824 304.96 301.824 305.76C301.824 306.6 301.984 307.24 302.304 307.68C302.624 308.12 303.084 308.34 303.684 308.34ZM305.684 300.86H308.584V310.02C308.584 311.647 308.098 312.867 307.124 313.68C306.151 314.507 304.931 314.92 303.464 314.92C302.038 314.92 300.791 314.667 299.724 314.16V311.18C300.658 311.927 301.804 312.3 303.164 312.3C304.044 312.3 304.684 312.113 305.084 311.74C305.484 311.367 305.684 310.78 305.684 309.98V309.3C305.098 310.207 304.164 310.66 302.884 310.66C301.764 310.66 300.798 310.247 299.984 309.42C299.184 308.593 298.784 307.367 298.784 305.74C298.784 304.3 299.171 303.113 299.944 302.18C300.731 301.233 301.758 300.76 303.024 300.76C304.224 300.76 305.111 301.24 305.684 302.2V300.86ZM315.904 306.84H314.964C314.47 306.84 314.09 306.947 313.824 307.16C313.557 307.373 313.424 307.647 313.424 307.98C313.424 308.66 313.817 309 314.604 309C315.017 309 315.337 308.873 315.564 308.62C315.79 308.367 315.904 308.02 315.904 307.58V306.84ZM311.164 303.98V301.36C311.964 300.907 313.117 300.68 314.624 300.68C316.064 300.68 317.137 300.993 317.844 301.62C318.55 302.233 318.904 303.193 318.904 304.5V311H316.044V309.76C315.617 310.627 314.777 311.06 313.524 311.06C312.537 311.06 311.764 310.78 311.204 310.22C310.657 309.66 310.384 308.96 310.384 308.12C310.384 307.147 310.737 306.393 311.444 305.86C312.164 305.313 313.224 305.04 314.624 305.04H315.904V304.34C315.904 303.487 315.337 303.06 314.204 303.06C313.11 303.06 312.097 303.367 311.164 303.98ZM324.576 303V307.66C324.576 308.02 324.676 308.293 324.876 308.48C325.089 308.667 325.363 308.76 325.696 308.76C326.229 308.76 326.703 308.627 327.116 308.36V310.78C326.623 310.993 325.956 311.1 325.116 311.1C322.809 311.1 321.656 309.947 321.656 307.64V303H320.196V300.86H321.656V298.46H324.576V300.86H326.936V303H324.576ZM329.011 311V300.86H331.931V311H329.011ZM329.271 299.12C328.938 298.787 328.771 298.387 328.771 297.92C328.771 297.453 328.938 297.053 329.271 296.72C329.604 296.387 330.004 296.22 330.471 296.22C330.938 296.22 331.338 296.387 331.671 296.72C332.004 297.053 332.171 297.453 332.171 297.92C332.171 298.387 332.004 298.787 331.671 299.12C331.338 299.453 330.938 299.62 330.471 299.62C330.004 299.62 329.604 299.453 329.271 299.12ZM337.078 311L333.338 300.86H336.398L337.718 305.18C337.918 305.847 338.092 306.48 338.238 307.08C338.385 307.667 338.478 308.093 338.518 308.36L338.598 308.74C338.718 307.873 339.018 306.687 339.498 305.18L340.858 300.86H343.858L340.078 311H337.078ZM351.021 305V304.76C350.928 303.573 350.408 302.98 349.461 302.98C348.994 302.98 348.581 303.153 348.221 303.5C347.861 303.833 347.621 304.333 347.501 305H351.021ZM353.121 307.98V310.42C352.428 310.873 351.368 311.1 349.941 311.1C348.274 311.1 346.974 310.62 346.041 309.66C345.121 308.687 344.661 307.44 344.661 305.92C344.661 304.307 345.108 303.047 346.001 302.14C346.908 301.22 348.021 300.76 349.341 300.76C350.701 300.76 351.774 301.16 352.561 301.96C353.348 302.747 353.741 303.927 353.741 305.5C353.741 305.807 353.688 306.333 353.581 307.08H347.621C347.821 307.64 348.168 308.073 348.661 308.38C349.154 308.687 349.748 308.84 350.441 308.84C351.468 308.84 352.361 308.553 353.121 307.98Z" fill="black"/>
<path d="M262.612 130.98H257.492V134.46H261.952V136.92H257.492V142H254.392V128.52H262.612V130.98ZM269.429 137.84H268.489C267.996 137.84 267.616 137.947 267.349 138.16C267.082 138.373 266.949 138.647 266.949 138.98C266.949 139.66 267.342 140 268.129 140C268.542 140 268.862 139.873 269.089 139.62C269.316 139.367 269.429 139.02 269.429 138.58V137.84ZM264.689 134.98V132.36C265.489 131.907 266.642 131.68 268.149 131.68C269.589 131.68 270.662 131.993 271.369 132.62C272.076 133.233 272.429 134.193 272.429 135.5V142H269.569V140.76C269.142 141.627 268.302 142.06 267.049 142.06C266.062 142.06 265.289 141.78 264.729 141.22C264.182 140.66 263.909 139.96 263.909 139.12C263.909 138.147 264.262 137.393 264.969 136.86C265.689 136.313 266.749 136.04 268.149 136.04H269.429V135.34C269.429 134.487 268.862 134.06 267.729 134.06C266.636 134.06 265.622 134.367 264.689 134.98ZM274.821 142V127.86H277.741V142H274.821ZM286.649 132.16V134.66C285.942 134.247 285.115 134.04 284.169 134.04C283.822 134.04 283.555 134.113 283.369 134.26C283.182 134.393 283.089 134.567 283.089 134.78C283.089 134.9 283.122 135.013 283.189 135.12C283.255 135.227 283.362 135.327 283.509 135.42C283.669 135.513 283.815 135.6 283.949 135.68C284.095 135.747 284.289 135.833 284.529 135.94C284.782 136.047 284.982 136.14 285.129 136.22C285.742 136.54 286.235 136.913 286.609 137.34C286.982 137.753 287.169 138.287 287.169 138.94C287.169 139.94 286.809 140.713 286.089 141.26C285.369 141.807 284.415 142.08 283.229 142.08C282.002 142.08 280.975 141.873 280.149 141.46V138.86C281.069 139.5 282.042 139.82 283.069 139.82C283.802 139.82 284.169 139.587 284.169 139.12C284.169 139 284.135 138.887 284.069 138.78C284.002 138.673 283.889 138.573 283.729 138.48C283.569 138.387 283.422 138.313 283.289 138.26C283.155 138.193 282.962 138.107 282.709 138C282.455 137.893 282.262 137.807 282.129 137.74C280.782 137.1 280.109 136.14 280.109 134.86C280.109 133.873 280.482 133.107 281.229 132.56C281.989 132.013 282.929 131.74 284.049 131.74C285.089 131.74 285.955 131.88 286.649 132.16ZM294.82 136V135.76C294.726 134.573 294.206 133.98 293.26 133.98C292.793 133.98 292.38 134.153 292.02 134.5C291.66 134.833 291.42 135.333 291.3 136H294.82ZM296.92 138.98V141.42C296.226 141.873 295.166 142.1 293.74 142.1C292.073 142.1 290.773 141.62 289.84 140.66C288.92 139.687 288.46 138.44 288.46 136.92C288.46 135.307 288.906 134.047 289.8 133.14C290.706 132.22 291.82 131.76 293.14 131.76C294.5 131.76 295.573 132.16 296.36 132.96C297.146 133.747 297.54 134.927 297.54 136.5C297.54 136.807 297.486 137.333 297.38 138.08H291.42C291.62 138.64 291.966 139.073 292.46 139.38C292.953 139.687 293.546 139.84 294.24 139.84C295.266 139.84 296.16 139.553 296.92 138.98ZM307.804 135.2H308.824C310.45 135.2 311.264 134.46 311.264 132.98C311.264 131.647 310.51 130.98 309.004 130.98H307.804V135.2ZM304.724 128.52H309.364C310.857 128.52 312.064 128.94 312.984 129.78C313.917 130.62 314.384 131.687 314.384 132.98C314.384 134.46 313.897 135.607 312.924 136.42C311.964 137.233 310.777 137.64 309.364 137.64H307.804V142H304.724V128.52ZM320.373 142.16C318.787 142.16 317.56 141.687 316.693 140.74C315.827 139.78 315.393 138.553 315.393 137.06C315.393 135.5 315.847 134.22 316.753 133.22C317.66 132.207 318.867 131.7 320.373 131.7C321.947 131.7 323.167 132.187 324.033 133.16C324.9 134.133 325.333 135.373 325.333 136.88C325.333 138.413 324.893 139.68 324.013 140.68C323.147 141.667 321.933 142.16 320.373 142.16ZM320.353 134C319.713 134 319.233 134.273 318.913 134.82C318.593 135.367 318.433 136.073 318.433 136.94C318.433 137.807 318.593 138.52 318.913 139.08C319.247 139.627 319.74 139.9 320.393 139.9C321.033 139.9 321.507 139.633 321.813 139.1C322.133 138.553 322.293 137.847 322.293 136.98C322.293 134.993 321.647 134 320.353 134ZM333.641 132.16V134.66C332.934 134.247 332.108 134.04 331.161 134.04C330.814 134.04 330.548 134.113 330.361 134.26C330.174 134.393 330.081 134.567 330.081 134.78C330.081 134.9 330.114 135.013 330.181 135.12C330.248 135.227 330.354 135.327 330.501 135.42C330.661 135.513 330.808 135.6 330.941 135.68C331.088 135.747 331.281 135.833 331.521 135.94C331.774 136.047 331.974 136.14 332.121 136.22C332.734 136.54 333.228 136.913 333.601 137.34C333.974 137.753 334.161 138.287 334.161 138.94C334.161 139.94 333.801 140.713 333.081 141.26C332.361 141.807 331.408 142.08 330.221 142.08C328.994 142.08 327.968 141.873 327.141 141.46V138.86C328.061 139.5 329.034 139.82 330.061 139.82C330.794 139.82 331.161 139.587 331.161 139.12C331.161 139 331.128 138.887 331.061 138.78C330.994 138.673 330.881 138.573 330.721 138.48C330.561 138.387 330.414 138.313 330.281 138.26C330.148 138.193 329.954 138.107 329.701 138C329.448 137.893 329.254 137.807 329.121 137.74C327.774 137.1 327.101 136.14 327.101 134.86C327.101 133.873 327.474 133.107 328.221 132.56C328.981 132.013 329.921 131.74 331.041 131.74C332.081 131.74 332.948 131.88 333.641 132.16ZM336.052 142V131.86H338.972V142H336.052ZM336.312 130.12C335.979 129.787 335.812 129.387 335.812 128.92C335.812 128.453 335.979 128.053 336.312 127.72C336.645 127.387 337.045 127.22 337.512 127.22C337.979 127.22 338.379 127.387 338.712 127.72C339.045 128.053 339.212 128.453 339.212 128.92C339.212 129.387 339.045 129.787 338.712 130.12C338.379 130.453 337.979 130.62 337.512 130.62C337.045 130.62 336.645 130.453 336.312 130.12ZM344.859 134V138.66C344.859 139.02 344.959 139.293 345.159 139.48C345.373 139.667 345.646 139.76 345.979 139.76C346.513 139.76 346.986 139.627 347.399 139.36V141.78C346.906 141.993 346.239 142.1 345.399 142.1C343.093 142.1 341.939 140.947 341.939 138.64V134H340.479V131.86H341.939V129.46H344.859V131.86H347.219V134H344.859ZM349.294 142V131.86H352.214V142H349.294ZM349.554 130.12C349.221 129.787 349.054 129.387 349.054 128.92C349.054 128.453 349.221 128.053 349.554 127.72C349.887 127.387 350.287 127.22 350.754 127.22C351.221 127.22 351.621 127.387 351.954 127.72C352.287 128.053 352.454 128.453 352.454 128.92C352.454 129.387 352.287 129.787 351.954 130.12C351.621 130.453 351.221 130.62 350.754 130.62C350.287 130.62 349.887 130.453 349.554 130.12ZM357.361 142L353.621 131.86H356.681L358.001 136.18C358.201 136.847 358.375 137.48 358.521 138.08C358.668 138.667 358.761 139.093 358.801 139.36L358.881 139.74C359.001 138.873 359.301 137.687 359.781 136.18L361.141 131.86H364.141L360.361 142H357.361ZM371.304 136V135.76C371.211 134.573 370.691 133.98 369.744 133.98C369.277 133.98 368.864 134.153 368.504 134.5C368.144 134.833 367.904 135.333 367.784 136H371.304ZM373.404 138.98V141.42C372.711 141.873 371.651 142.1 370.224 142.1C368.557 142.1 367.257 141.62 366.324 140.66C365.404 139.687 364.944 138.44 364.944 136.92C364.944 135.307 365.391 134.047 366.284 133.14C367.191 132.22 368.304 131.76 369.624 131.76C370.984 131.76 372.057 132.16 372.844 132.96C373.631 133.747 374.024 134.927 374.024 136.5C374.024 136.807 373.971 137.333 373.864 138.08H367.904C368.104 138.64 368.451 139.073 368.944 139.38C369.437 139.687 370.031 139.84 370.724 139.84C371.751 139.84 372.644 139.553 373.404 138.98Z" fill="black"/>
<path d="M131.854 267.98H126.734V271.46H131.194V273.92H126.734V279H123.634V265.52H131.854V267.98ZM138.671 274.84H137.731C137.238 274.84 136.858 274.947 136.591 275.16C136.325 275.373 136.191 275.647 136.191 275.98C136.191 276.66 136.585 277 137.371 277C137.785 277 138.105 276.873 138.331 276.62C138.558 276.367 138.671 276.02 138.671 275.58V274.84ZM133.931 271.98V269.36C134.731 268.907 135.885 268.68 137.391 268.68C138.831 268.68 139.905 268.993 140.611 269.62C141.318 270.233 141.671 271.193 141.671 272.5V279H138.811V277.76C138.385 278.627 137.545 279.06 136.291 279.06C135.305 279.06 134.531 278.78 133.971 278.22C133.425 277.66 133.151 276.96 133.151 276.12C133.151 275.147 133.505 274.393 134.211 273.86C134.931 273.313 135.991 273.04 137.391 273.04H138.671V272.34C138.671 271.487 138.105 271.06 136.971 271.06C135.878 271.06 134.865 271.367 133.931 271.98ZM144.064 279V264.86H146.984V279H144.064ZM155.891 269.16V271.66C155.184 271.247 154.358 271.04 153.411 271.04C153.064 271.04 152.798 271.113 152.611 271.26C152.424 271.393 152.331 271.567 152.331 271.78C152.331 271.9 152.364 272.013 152.431 272.12C152.498 272.227 152.604 272.327 152.751 272.42C152.911 272.513 153.058 272.6 153.191 272.68C153.338 272.747 153.531 272.833 153.771 272.94C154.024 273.047 154.224 273.14 154.371 273.22C154.984 273.54 155.478 273.913 155.851 274.34C156.224 274.753 156.411 275.287 156.411 275.94C156.411 276.94 156.051 277.713 155.331 278.26C154.611 278.807 153.658 279.08 152.471 279.08C151.244 279.08 150.218 278.873 149.391 278.46V275.86C150.311 276.5 151.284 276.82 152.311 276.82C153.044 276.82 153.411 276.587 153.411 276.12C153.411 276 153.378 275.887 153.311 275.78C153.244 275.673 153.131 275.573 152.971 275.48C152.811 275.387 152.664 275.313 152.531 275.26C152.398 275.193 152.204 275.107 151.951 275C151.698 274.893 151.504 274.807 151.371 274.74C150.024 274.1 149.351 273.14 149.351 271.86C149.351 270.873 149.724 270.107 150.471 269.56C151.231 269.013 152.171 268.74 153.291 268.74C154.331 268.74 155.198 268.88 155.891 269.16ZM164.062 273V272.76C163.969 271.573 163.449 270.98 162.502 270.98C162.035 270.98 161.622 271.153 161.262 271.5C160.902 271.833 160.662 272.333 160.542 273H164.062ZM166.162 275.98V278.42C165.469 278.873 164.409 279.1 162.982 279.1C161.315 279.1 160.015 278.62 159.082 277.66C158.162 276.687 157.702 275.44 157.702 273.92C157.702 272.307 158.149 271.047 159.042 270.14C159.949 269.22 161.062 268.76 162.382 268.76C163.742 268.76 164.815 269.16 165.602 269.96C166.389 270.747 166.782 271.927 166.782 273.5C166.782 273.807 166.729 274.333 166.622 275.08H160.662C160.862 275.64 161.209 276.073 161.702 276.38C162.195 276.687 162.789 276.84 163.482 276.84C164.509 276.84 165.402 276.553 166.162 275.98ZM105.675 311V297.52H109.055L112.195 303.1C112.635 303.887 113.015 304.627 113.335 305.32C113.668 306 113.882 306.48 113.975 306.76L114.135 307.2C114.002 306.213 113.935 304.847 113.935 303.1V297.52H117.015V311H113.635L110.415 305.42C109.988 304.7 109.608 303.993 109.275 303.3C108.955 302.593 108.735 302.073 108.615 301.74L108.455 301.24C108.655 302.44 108.755 303.833 108.755 305.42V311H105.675ZM125.38 305V304.76C125.287 303.573 124.767 302.98 123.82 302.98C123.354 302.98 122.94 303.153 122.58 303.5C122.22 303.833 121.98 304.333 121.86 305H125.38ZM127.48 307.98V310.42C126.787 310.873 125.727 311.1 124.3 311.1C122.634 311.1 121.334 310.62 120.4 309.66C119.48 308.687 119.02 307.44 119.02 305.92C119.02 304.307 119.467 303.047 120.36 302.14C121.267 301.22 122.38 300.76 123.7 300.76C125.06 300.76 126.134 301.16 126.92 301.96C127.707 302.747 128.1 303.927 128.1 305.5C128.1 305.807 128.047 306.333 127.94 307.08H121.98C122.18 307.64 122.527 308.073 123.02 308.38C123.514 308.687 124.107 308.84 124.8 308.84C125.827 308.84 126.72 308.553 127.48 307.98ZM134.684 308.34C135.311 308.34 135.798 308.107 136.144 307.64C136.504 307.16 136.684 306.587 136.684 305.92C136.684 304.107 136.024 303.2 134.704 303.2C134.118 303.2 133.658 303.427 133.324 303.88C132.991 304.333 132.824 304.96 132.824 305.76C132.824 306.6 132.984 307.24 133.304 307.68C133.624 308.12 134.084 308.34 134.684 308.34ZM136.684 300.86H139.584V310.02C139.584 311.647 139.098 312.867 138.124 313.68C137.151 314.507 135.931 314.92 134.464 314.92C133.038 314.92 131.791 314.667 130.724 314.16V311.18C131.658 311.927 132.804 312.3 134.164 312.3C135.044 312.3 135.684 312.113 136.084 311.74C136.484 311.367 136.684 310.78 136.684 309.98V309.3C136.098 310.207 135.164 310.66 133.884 310.66C132.764 310.66 131.798 310.247 130.984 309.42C130.184 308.593 129.784 307.367 129.784 305.74C129.784 304.3 130.171 303.113 130.944 302.18C131.731 301.233 132.758 300.76 134.024 300.76C135.224 300.76 136.111 301.24 136.684 302.2V300.86ZM146.904 306.84H145.964C145.47 306.84 145.09 306.947 144.824 307.16C144.557 307.373 144.424 307.647 144.424 307.98C144.424 308.66 144.817 309 145.604 309C146.017 309 146.337 308.873 146.564 308.62C146.79 308.367 146.904 308.02 146.904 307.58V306.84ZM142.164 303.98V301.36C142.964 300.907 144.117 300.68 145.624 300.68C147.064 300.68 148.137 300.993 148.844 301.62C149.55 302.233 149.904 303.193 149.904 304.5V311H147.044V309.76C146.617 310.627 145.777 311.06 144.524 311.06C143.537 311.06 142.764 310.78 142.204 310.22C141.657 309.66 141.384 308.96 141.384 308.12C141.384 307.147 141.737 306.393 142.444 305.86C143.164 305.313 144.224 305.04 145.624 305.04H146.904V304.34C146.904 303.487 146.337 303.06 145.204 303.06C144.11 303.06 143.097 303.367 142.164 303.98ZM155.576 303V307.66C155.576 308.02 155.676 308.293 155.876 308.48C156.089 308.667 156.363 308.76 156.696 308.76C157.229 308.76 157.703 308.627 158.116 308.36V310.78C157.623 310.993 156.956 311.1 156.116 311.1C153.809 311.1 152.656 309.947 152.656 307.64V303H151.196V300.86H152.656V298.46H155.576V300.86H157.936V303H155.576ZM160.011 311V300.86H162.931V311H160.011ZM160.271 299.12C159.938 298.787 159.771 298.387 159.771 297.92C159.771 297.453 159.938 297.053 160.271 296.72C160.604 296.387 161.004 296.22 161.471 296.22C161.938 296.22 162.338 296.387 162.671 296.72C163.004 297.053 163.171 297.453 163.171 297.92C163.171 298.387 163.004 298.787 162.671 299.12C162.338 299.453 161.938 299.62 161.471 299.62C161.004 299.62 160.604 299.453 160.271 299.12ZM168.078 311L164.338 300.86H167.398L168.718 305.18C168.918 305.847 169.092 306.48 169.238 307.08C169.385 307.667 169.478 308.093 169.518 308.36L169.598 308.74C169.718 307.873 170.018 306.687 170.498 305.18L171.858 300.86H174.858L171.078 311H168.078ZM182.021 305V304.76C181.928 303.573 181.408 302.98 180.461 302.98C179.994 302.98 179.581 303.153 179.221 303.5C178.861 303.833 178.621 304.333 178.501 305H182.021ZM184.121 307.98V310.42C183.428 310.873 182.368 311.1 180.941 311.1C179.274 311.1 177.974 310.62 177.041 309.66C176.121 308.687 175.661 307.44 175.661 305.92C175.661 304.307 176.108 303.047 177.001 302.14C177.908 301.22 179.021 300.76 180.341 300.76C181.701 300.76 182.774 301.16 183.561 301.96C184.348 302.747 184.741 303.927 184.741 305.5C184.741 305.807 184.688 306.333 184.581 307.08H178.621C178.821 307.64 179.168 308.073 179.661 308.38C180.154 308.687 180.748 308.84 181.441 308.84C182.468 308.84 183.361 308.553 184.121 307.98Z" fill="black"/>
</g>
<path d="M15.66 178.08V176C15.66 174.987 15.4 174.194 14.88 173.62C14.3467 173.047 13.6733 172.76 12.86 172.76C11.9533 172.76 11.2333 173.054 10.7 173.64C10.1667 174.227 9.9 175.06 9.9 176.14V178.08H15.66ZM8.52 179.7V176.16C8.52 174.6 8.92667 173.374 9.74 172.48C10.54 171.574 11.58 171.12 12.86 171.12C14.06 171.12 15.06 171.567 15.86 172.46C16.6467 173.354 17.04 174.534 17.04 176V178.08H22V179.7H8.52ZM11.86 167.322H13.64C12.3867 166.788 11.76 165.868 11.76 164.562C11.76 164.322 11.7733 164.135 11.8 164.002H13.36C13.2667 164.282 13.22 164.568 13.22 164.862C13.22 165.568 13.5467 166.155 14.2 166.622C14.8533 167.088 15.6067 167.322 16.46 167.322H22V168.902L11.86 168.882V167.322ZM16.28 155.898H15.88C15.04 155.898 14.3733 156.125 13.88 156.578C13.3733 157.032 13.12 157.658 13.12 158.458C13.12 159.218 13.3933 159.865 13.94 160.398C14.4867 160.932 15.2667 161.245 16.28 161.338V155.898ZM20 154.958H21.48C21.8933 155.745 22.1 156.705 22.1 157.838C22.1 159.372 21.6333 160.612 20.7 161.558C19.7533 162.492 18.5067 162.958 16.96 162.958C15.3467 162.958 14.0733 162.538 13.14 161.698C12.2067 160.858 11.74 159.778 11.74 158.458C11.74 157.192 12.1467 156.185 12.96 155.438C13.7733 154.692 14.9267 154.318 16.42 154.318C16.8467 154.318 17.24 154.352 17.6 154.418V161.338C18.6 161.218 19.3667 160.838 19.9 160.198C20.4333 159.558 20.7 158.718 20.7 157.678C20.7 156.545 20.4667 155.638 20 154.958ZM20.72 148.049C20.72 147.222 20.4133 146.522 19.8 145.949C19.1867 145.362 18.2067 145.069 16.86 145.069C15.58 145.069 14.64 145.369 14.04 145.969C13.44 146.569 13.14 147.229 13.14 147.949C13.14 148.789 13.48 149.489 14.16 150.049C14.8267 150.596 15.7867 150.869 17.04 150.869C18.1333 150.869 19.02 150.602 19.7 150.069C20.38 149.536 20.72 148.862 20.72 148.049ZM7.86 145.069V143.489H22V145.069H20.5C21.6067 145.789 22.16 146.829 22.16 148.189C22.16 149.536 21.66 150.596 20.66 151.369C19.66 152.129 18.4467 152.509 17.02 152.509C15.4333 152.509 14.1533 152.102 13.18 151.289C12.1933 150.476 11.7 149.429 11.7 148.149C11.7 146.829 12.2667 145.802 13.4 145.069H7.86ZM22 140.481H11.86V138.901H22V140.481ZM9.42 140.441C9.22 140.628 8.97333 140.721 8.68 140.721C8.38667 140.721 8.14 140.628 7.94 140.441C7.74 140.241 7.64 139.995 7.64 139.701C7.64 139.408 7.74 139.161 7.94 138.961C8.14 138.761 8.38667 138.661 8.68 138.661C8.97333 138.661 9.22 138.761 9.42 138.961C9.60667 139.161 9.7 139.408 9.7 139.701C9.7 139.995 9.60667 140.241 9.42 140.441ZM16.98 134.854C18.0733 134.84 18.9867 134.507 19.72 133.854C20.44 133.2 20.8 132.274 20.8 131.074C20.8 130.3 20.58 129.58 20.14 128.914H21.64C22.0267 129.554 22.22 130.34 22.22 131.274C22.22 132.874 21.7133 134.147 20.7 135.094C19.6733 136.027 18.4267 136.494 16.96 136.494C15.52 136.494 14.28 136.027 13.24 135.094C12.2 134.147 11.68 132.86 11.68 131.234C11.68 130.367 11.8667 129.594 12.24 128.914H13.74C13.3267 129.527 13.12 130.247 13.12 131.074C13.12 132.22 13.4933 133.14 14.24 133.834C14.9733 134.514 15.8867 134.854 16.98 134.854ZM13.14 124.299H19.08C20.16 124.299 20.7 123.793 20.7 122.779C20.7 122.259 20.5467 121.799 20.24 121.399H21.74C21.98 121.839 22.1 122.333 22.1 122.879C22.1 124.879 21.08 125.879 19.04 125.879H13.14V127.499H11.86V125.879H9.34V124.299H11.86V121.499H13.14V124.299ZM16.28 112.637H15.88C15.04 112.637 14.3733 112.863 13.88 113.317C13.3733 113.77 13.12 114.397 13.12 115.197C13.12 115.957 13.3933 116.603 13.94 117.137C14.4867 117.67 15.2667 117.983 16.28 118.077V112.637ZM20 111.697H21.48C21.8933 112.483 22.1 113.443 22.1 114.577C22.1 116.11 21.6333 117.35 20.7 118.297C19.7533 119.23 18.5067 119.697 16.96 119.697C15.3467 119.697 14.0733 119.277 13.14 118.437C12.2067 117.597 11.74 116.517 11.74 115.197C11.74 113.93 12.1467 112.923 12.96 112.177C13.7733 111.43 14.9267 111.057 16.42 111.057C16.8467 111.057 17.24 111.09 17.6 111.157V118.077C18.6 117.957 19.3667 117.577 19.9 116.937C20.4333 116.297 20.7 115.457 20.7 114.417C20.7 113.283 20.4667 112.377 20 111.697ZM20.72 104.787C20.72 103.961 20.4133 103.261 19.8 102.687C19.1867 102.101 18.2067 101.807 16.86 101.807C15.58 101.807 14.64 102.107 14.04 102.707C13.44 103.307 13.14 103.967 13.14 104.687C13.14 105.527 13.48 106.227 14.16 106.787C14.8267 107.334 15.7867 107.607 17.04 107.607C18.1333 107.607 19.02 107.341 19.7 106.807C20.38 106.274 20.72 105.601 20.72 104.787ZM7.86 101.807V100.227H22V101.807H20.5C21.6067 102.527 22.16 103.567 22.16 104.927C22.16 106.274 21.66 107.334 20.66 108.107C19.66 108.867 18.4467 109.247 17.02 109.247C15.4333 109.247 14.1533 108.841 13.18 108.027C12.1933 107.214 11.7 106.167 11.7 104.887C11.7 103.567 12.2667 102.541 13.4 101.807H7.86ZM47.66 170.658V168.578C47.66 167.565 47.4 166.772 46.88 166.198C46.3467 165.625 45.6733 165.338 44.86 165.338C43.9533 165.338 43.2333 165.632 42.7 166.218C42.1667 166.805 41.9 167.638 41.9 168.718V170.658H47.66ZM40.52 172.278V168.738C40.52 167.178 40.9267 165.952 41.74 165.058C42.54 164.152 43.58 163.698 44.86 163.698C46.06 163.698 47.06 164.145 47.86 165.038C48.6467 165.932 49.04 167.112 49.04 168.578V170.658H54V172.278H40.52ZM54.18 157.34C54.18 158.793 53.6933 159.947 52.72 160.8C51.7333 161.64 50.4933 162.06 49 162.06C47.4933 162.06 46.24 161.627 45.24 160.76C44.2267 159.88 43.72 158.74 43.72 157.34C43.72 155.807 44.2133 154.627 45.2 153.8C46.1867 152.96 47.44 152.54 48.96 152.54C50.4667 152.54 51.7133 152.967 52.7 153.82C53.6867 154.673 54.18 155.847 54.18 157.34ZM45.12 157.34C45.12 158.3 45.4933 159.053 46.24 159.6C46.9867 160.147 47.9 160.42 48.98 160.42C50.0333 160.42 50.9333 160.14 51.68 159.58C52.4133 159.02 52.78 158.273 52.78 157.34C52.78 156.327 52.42 155.547 51.7 155C50.9667 154.453 50.06 154.18 48.98 154.18C47.86 154.18 46.94 154.44 46.22 154.96C45.4867 155.48 45.12 156.273 45.12 157.34ZM44.2 144.709H45.7C45.3267 145.323 45.14 146.163 45.14 147.229C45.14 147.763 45.2667 148.189 45.52 148.509C45.76 148.816 46.0733 148.969 46.46 148.969C46.7 148.969 46.9133 148.923 47.1 148.829C47.2733 148.736 47.4467 148.556 47.62 148.289C47.7933 148.009 47.9133 147.809 47.98 147.689C48.0333 147.556 48.1533 147.276 48.34 146.849C48.6867 145.996 49.08 145.329 49.52 144.849C49.96 144.369 50.5533 144.129 51.3 144.129C52.1667 144.129 52.8533 144.436 53.36 145.049C53.8667 145.649 54.12 146.476 54.12 147.529C54.12 148.756 53.9133 149.749 53.5 150.509H51.96C52.4933 149.616 52.76 148.656 52.76 147.629C52.76 147.016 52.64 146.549 52.4 146.229C52.16 145.909 51.8333 145.749 51.42 145.749C50.94 145.749 50.5667 145.929 50.3 146.289C50.0333 146.636 49.7333 147.223 49.4 148.049C49.1067 148.809 48.74 149.423 48.3 149.889C47.86 150.343 47.2667 150.569 46.52 150.569C45.68 150.569 45.0133 150.256 44.52 149.629C44.0133 148.989 43.76 148.196 43.76 147.249C43.76 146.196 43.9067 145.349 44.2 144.709ZM54 141.907H43.86V140.327H54V141.907ZM41.42 141.867C41.22 142.054 40.9733 142.147 40.68 142.147C40.3867 142.147 40.14 142.054 39.94 141.867C39.74 141.667 39.64 141.421 39.64 141.127C39.64 140.834 39.74 140.587 39.94 140.387C40.14 140.187 40.3867 140.087 40.68 140.087C40.9733 140.087 41.22 140.187 41.42 140.387C41.6067 140.587 41.7 140.834 41.7 141.127C41.7 141.421 41.6067 141.667 41.42 141.867ZM45.14 135.139H51.08C52.16 135.139 52.7 134.633 52.7 133.619C52.7 133.099 52.5467 132.639 52.24 132.239H53.74C53.98 132.679 54.1 133.173 54.1 133.719C54.1 135.719 53.08 136.719 51.04 136.719H45.14V138.339H43.86V136.719H41.34V135.139H43.86V132.339H45.14V135.139ZM54 129.856H43.86V128.276H54V129.856ZM41.42 129.816C41.22 130.003 40.9733 130.096 40.68 130.096C40.3867 130.096 40.14 130.003 39.94 129.816C39.74 129.616 39.64 129.37 39.64 129.076C39.64 128.783 39.74 128.536 39.94 128.336C40.14 128.136 40.3867 128.036 40.68 128.036C40.9733 128.036 41.22 128.136 41.42 128.336C41.6067 128.536 41.7 128.783 41.7 129.076C41.7 129.37 41.6067 129.616 41.42 129.816ZM54 122.689L43.86 126.229V124.589L48.14 123.189L52.76 121.709C52.1867 121.589 50.6467 121.089 48.14 120.209L43.86 118.769V117.129L54 120.749V122.689ZM48.28 108.711H47.88C47.04 108.711 46.3733 108.938 45.88 109.391C45.3733 109.844 45.12 110.471 45.12 111.271C45.12 112.031 45.3933 112.678 45.94 113.211C46.4867 113.744 47.2667 114.058 48.28 114.151V108.711ZM52 107.771H53.48C53.8933 108.558 54.1 109.518 54.1 110.651C54.1 112.184 53.6333 113.424 52.7 114.371C51.7533 115.304 50.5067 115.771 48.96 115.771C47.3467 115.771 46.0733 115.351 45.14 114.511C44.2067 113.671 43.74 112.591 43.74 111.271C43.74 110.004 44.1467 108.998 44.96 108.251C45.7733 107.504 46.9267 107.131 48.42 107.131C48.8467 107.131 49.24 107.164 49.6 107.231V114.151C50.6 114.031 51.3667 113.651 51.9 113.011C52.4333 112.371 52.7 111.531 52.7 110.491C52.7 109.358 52.4667 108.451 52 107.771Z" fill="black"/>
<path d="M88.8012 33.08H93.5812L93.3212 32.3L91.2212 25.82C91.0612 26.3933 90.3412 28.56 89.0612 32.32L88.8012 33.08ZM95.2212 38L94.0412 34.46H88.3412L87.1412 38H85.4012L90.1012 24.52H92.3412L96.9612 38H95.2212ZM100.17 32.98C100.183 34.0733 100.517 34.9867 101.17 35.72C101.823 36.44 102.75 36.8 103.95 36.8C104.723 36.8 105.443 36.58 106.11 36.14V37.64C105.47 38.0267 104.683 38.22 103.75 38.22C102.15 38.22 100.877 37.7133 99.9299 36.7C98.9966 35.6733 98.5299 34.4267 98.5299 32.96C98.5299 31.52 98.9966 30.28 99.9299 29.24C100.877 28.2 102.163 27.68 103.79 27.68C104.657 27.68 105.43 27.8667 106.11 28.24V29.74C105.497 29.3267 104.777 29.12 103.95 29.12C102.803 29.12 101.883 29.4933 101.19 30.24C100.51 30.9733 100.17 31.8867 100.17 32.98ZM110.724 29.14V35.08C110.724 36.16 111.231 36.7 112.244 36.7C112.764 36.7 113.224 36.5467 113.624 36.24V37.74C113.184 37.98 112.691 38.1 112.144 38.1C110.144 38.1 109.144 37.08 109.144 35.04V29.14H107.524V27.86H109.144V25.34H110.724V27.86H113.524V29.14H110.724ZM122.227 27.86H123.807V38H122.227V36.24C121.693 37.4933 120.633 38.12 119.047 38.12C118.047 38.12 117.253 37.8267 116.667 37.24C116.093 36.64 115.807 35.84 115.807 34.84V27.86H117.387V34.44C117.387 35.1733 117.573 35.7333 117.947 36.12C118.32 36.5067 118.827 36.7 119.467 36.7C120.307 36.7 120.973 36.4067 121.467 35.82C121.973 35.2333 122.227 34.44 122.227 33.44V27.86ZM132.188 33.32H130.428C129.574 33.32 128.934 33.4867 128.508 33.82C128.081 34.1533 127.868 34.5733 127.868 35.08C127.868 35.5867 128.034 36 128.368 36.32C128.701 36.6267 129.188 36.78 129.828 36.78C130.548 36.78 131.121 36.58 131.548 36.18C131.974 35.7667 132.188 35.2467 132.188 34.62V33.32ZM126.948 29.98V28.4C127.708 27.9333 128.708 27.7 129.948 27.7C132.494 27.7 133.768 28.9933 133.768 31.58V38H132.208V36.8C131.688 37.6667 130.741 38.1 129.368 38.1C128.421 38.1 127.654 37.82 127.068 37.26C126.494 36.7 126.208 35.9933 126.208 35.14C126.208 34.1667 126.574 33.4133 127.308 32.88C128.054 32.3333 129.068 32.06 130.348 32.06H132.188V31.54C132.188 30.74 132.008 30.14 131.648 29.74C131.288 29.3267 130.681 29.12 129.828 29.12C128.748 29.12 127.788 29.4067 126.948 29.98ZM136.651 38V23.86H138.231V38H136.651ZM147.822 31.66H149.902C150.915 31.66 151.709 31.4 152.282 30.88C152.855 30.3467 153.142 29.6733 153.142 28.86C153.142 27.9533 152.849 27.2333 152.262 26.7C151.675 26.1667 150.842 25.9 149.762 25.9H147.822V31.66ZM146.202 24.52H149.742C151.302 24.52 152.529 24.9267 153.422 25.74C154.329 26.54 154.782 27.58 154.782 28.86C154.782 30.06 154.335 31.06 153.442 31.86C152.549 32.6467 151.369 33.04 149.902 33.04H147.822V38H146.202V24.52ZM161.141 38.18C159.687 38.18 158.534 37.6933 157.681 36.72C156.841 35.7333 156.421 34.4933 156.421 33C156.421 31.4933 156.854 30.24 157.721 29.24C158.601 28.2267 159.741 27.72 161.141 27.72C162.674 27.72 163.854 28.2133 164.681 29.2C165.521 30.1867 165.941 31.44 165.941 32.96C165.941 34.4667 165.514 35.7133 164.661 36.7C163.807 37.6867 162.634 38.18 161.141 38.18ZM161.141 29.12C160.181 29.12 159.427 29.4933 158.881 30.24C158.334 30.9867 158.061 31.9 158.061 32.98C158.061 34.0333 158.341 34.9333 158.901 35.68C159.461 36.4133 160.207 36.78 161.141 36.78C162.154 36.78 162.934 36.42 163.481 35.7C164.027 34.9667 164.301 34.06 164.301 32.98C164.301 31.86 164.041 30.94 163.521 30.22C163.001 29.4867 162.207 29.12 161.141 29.12ZM173.771 28.2V29.7C173.158 29.3267 172.318 29.14 171.251 29.14C170.718 29.14 170.291 29.2667 169.971 29.52C169.664 29.76 169.511 30.0733 169.511 30.46C169.511 30.7 169.558 30.9133 169.651 31.1C169.744 31.2733 169.924 31.4467 170.191 31.62C170.471 31.7933 170.671 31.9133 170.791 31.98C170.924 32.0333 171.204 32.1533 171.631 32.34C172.484 32.6867 173.151 33.08 173.631 33.52C174.111 33.96 174.351 34.5533 174.351 35.3C174.351 36.1667 174.044 36.8533 173.431 37.36C172.831 37.8667 172.004 38.12 170.951 38.12C169.724 38.12 168.731 37.9133 167.971 37.5V35.96C168.864 36.4933 169.824 36.76 170.851 36.76C171.464 36.76 171.931 36.64 172.251 36.4C172.571 36.16 172.731 35.8333 172.731 35.42C172.731 34.94 172.551 34.5667 172.191 34.3C171.844 34.0333 171.258 33.7333 170.431 33.4C169.671 33.1067 169.058 32.74 168.591 32.3C168.138 31.86 167.911 31.2667 167.911 30.52C167.911 29.68 168.224 29.0133 168.851 28.52C169.491 28.0133 170.284 27.76 171.231 27.76C172.284 27.76 173.131 27.9067 173.771 28.2ZM176.573 38V27.86H178.153V38H176.573ZM176.613 25.42C176.427 25.22 176.333 24.9733 176.333 24.68C176.333 24.3867 176.427 24.14 176.613 23.94C176.813 23.74 177.06 23.64 177.353 23.64C177.647 23.64 177.893 23.74 178.093 23.94C178.293 24.14 178.393 24.3867 178.393 24.68C178.393 24.9733 178.293 25.22 178.093 25.42C177.893 25.6067 177.647 25.7 177.353 25.7C177.06 25.7 176.813 25.6067 176.613 25.42ZM183.341 29.14V35.08C183.341 36.16 183.848 36.7 184.861 36.7C185.381 36.7 185.841 36.5467 186.241 36.24V37.74C185.801 37.98 185.308 38.1 184.761 38.1C182.761 38.1 181.761 37.08 181.761 35.04V29.14H180.141V27.86H181.761V25.34H183.341V27.86H186.141V29.14H183.341ZM188.624 38V27.86H190.204V38H188.624ZM188.664 25.42C188.477 25.22 188.384 24.9733 188.384 24.68C188.384 24.3867 188.477 24.14 188.664 23.94C188.864 23.74 189.111 23.64 189.404 23.64C189.697 23.64 189.944 23.74 190.144 23.94C190.344 24.14 190.444 24.3867 190.444 24.68C190.444 24.9733 190.344 25.22 190.144 25.42C189.944 25.6067 189.697 25.7 189.404 25.7C189.111 25.7 188.864 25.6067 188.664 25.42ZM195.792 38L192.252 27.86H193.892L195.292 32.14L196.772 36.76C196.892 36.1867 197.392 34.6467 198.272 32.14L199.712 27.86H201.352L197.732 38H195.792ZM209.77 32.28V31.88C209.77 31.04 209.543 30.3733 209.09 29.88C208.636 29.3733 208.01 29.12 207.21 29.12C206.45 29.12 205.803 29.3933 205.27 29.94C204.736 30.4867 204.423 31.2667 204.33 32.28H209.77ZM210.71 36V37.48C209.923 37.8933 208.963 38.1 207.83 38.1C206.296 38.1 205.056 37.6333 204.11 36.7C203.176 35.7533 202.71 34.5067 202.71 32.96C202.71 31.3467 203.13 30.0733 203.97 29.14C204.81 28.2067 205.89 27.74 207.21 27.74C208.476 27.74 209.483 28.1467 210.23 28.96C210.976 29.7733 211.35 30.9267 211.35 32.42C211.35 32.8467 211.316 33.24 211.25 33.6H204.33C204.45 34.6 204.83 35.3667 205.47 35.9C206.11 36.4333 206.95 36.7 207.99 36.7C209.123 36.7 210.03 36.4667 210.71 36Z" fill="black"/>
<path d="M248.957 33.08H253.737L253.477 32.3L251.377 25.82C251.217 26.3933 250.497 28.56 249.217 32.32L248.957 33.08ZM255.377 38L254.197 34.46H248.497L247.297 38H245.557L250.257 24.52H252.497L257.117 38H255.377ZM260.326 32.98C260.34 34.0733 260.673 34.9867 261.326 35.72C261.98 36.44 262.906 36.8 264.106 36.8C264.88 36.8 265.6 36.58 266.266 36.14V37.64C265.626 38.0267 264.84 38.22 263.906 38.22C262.306 38.22 261.033 37.7133 260.086 36.7C259.153 35.6733 258.686 34.4267 258.686 32.96C258.686 31.52 259.153 30.28 260.086 29.24C261.033 28.2 262.32 27.68 263.946 27.68C264.813 27.68 265.586 27.8667 266.266 28.24V29.74C265.653 29.3267 264.933 29.12 264.106 29.12C262.96 29.12 262.04 29.4933 261.346 30.24C260.666 30.9733 260.326 31.8867 260.326 32.98ZM270.88 29.14V35.08C270.88 36.16 271.387 36.7 272.4 36.7C272.92 36.7 273.38 36.5467 273.78 36.24V37.74C273.34 37.98 272.847 38.1 272.3 38.1C270.3 38.1 269.3 37.08 269.3 35.04V29.14H267.68V27.86H269.3V25.34H270.88V27.86H273.68V29.14H270.88ZM282.383 27.86H283.963V38H282.383V36.24C281.85 37.4933 280.79 38.12 279.203 38.12C278.203 38.12 277.41 37.8267 276.823 37.24C276.25 36.64 275.963 35.84 275.963 34.84V27.86H277.543V34.44C277.543 35.1733 277.73 35.7333 278.103 36.12C278.476 36.5067 278.983 36.7 279.623 36.7C280.463 36.7 281.13 36.4067 281.623 35.82C282.13 35.2333 282.383 34.44 282.383 33.44V27.86ZM292.344 33.32H290.584C289.73 33.32 289.09 33.4867 288.664 33.82C288.237 34.1533 288.024 34.5733 288.024 35.08C288.024 35.5867 288.19 36 288.524 36.32C288.857 36.6267 289.344 36.78 289.984 36.78C290.704 36.78 291.277 36.58 291.704 36.18C292.13 35.7667 292.344 35.2467 292.344 34.62V33.32ZM287.104 29.98V28.4C287.864 27.9333 288.864 27.7 290.104 27.7C292.65 27.7 293.924 28.9933 293.924 31.58V38H292.364V36.8C291.844 37.6667 290.897 38.1 289.524 38.1C288.577 38.1 287.81 37.82 287.224 37.26C286.65 36.7 286.364 35.9933 286.364 35.14C286.364 34.1667 286.73 33.4133 287.464 32.88C288.21 32.3333 289.224 32.06 290.504 32.06H292.344V31.54C292.344 30.74 292.164 30.14 291.804 29.74C291.444 29.3267 290.837 29.12 289.984 29.12C288.904 29.12 287.944 29.4067 287.104 29.98ZM296.808 38V23.86H298.388V38H296.808ZM306.358 38V24.52H308.398L311.778 30.2L315.198 36.04C315.145 34.7467 315.118 32.8067 315.118 30.22V24.52H316.738V38H314.698L311.318 32.36C310.638 31.2267 310.012 30.1733 309.438 29.2C308.865 28.2133 308.458 27.5067 308.218 27.08L307.878 26.46C307.945 27.8467 307.978 29.8 307.978 32.32V38H306.358ZM326.195 32.28V31.88C326.195 31.04 325.969 30.3733 325.515 29.88C325.062 29.3733 324.435 29.12 323.635 29.12C322.875 29.12 322.229 29.3933 321.695 29.94C321.162 30.4867 320.849 31.2667 320.755 32.28H326.195ZM327.135 36V37.48C326.349 37.8933 325.389 38.1 324.255 38.1C322.722 38.1 321.482 37.6333 320.535 36.7C319.602 35.7533 319.135 34.5067 319.135 32.96C319.135 31.3467 319.555 30.0733 320.395 29.14C321.235 28.2067 322.315 27.74 323.635 27.74C324.902 27.74 325.909 28.1467 326.655 28.96C327.402 29.7733 327.775 30.9267 327.775 32.42C327.775 32.8467 327.742 33.24 327.675 33.6H320.755C320.875 34.6 321.255 35.3667 321.895 35.9C322.535 36.4333 323.375 36.7 324.415 36.7C325.549 36.7 326.455 36.4667 327.135 36ZM333.985 36.34C334.718 36.34 335.365 36.06 335.925 35.5C336.498 34.9267 336.785 34.08 336.785 32.96C336.785 31.6667 336.511 30.7067 335.965 30.08C335.418 29.4533 334.785 29.14 334.065 29.14C333.198 29.14 332.511 29.4867 332.005 30.18C331.498 30.86 331.245 31.7533 331.245 32.86C331.245 33.9933 331.525 34.86 332.085 35.46C332.645 36.0467 333.278 36.34 333.985 36.34ZM336.785 27.86H338.365V37.18C338.365 38.7267 337.938 39.8867 337.085 40.66C336.231 41.4467 335.131 41.84 333.785 41.84C332.558 41.84 331.511 41.6333 330.645 41.22V39.64C331.498 40.1333 332.498 40.38 333.645 40.38C334.618 40.38 335.385 40.12 335.945 39.6C336.505 39.08 336.785 38.2667 336.785 37.16V36.02C336.118 37.1667 335.125 37.74 333.805 37.74C332.645 37.74 331.651 37.3133 330.825 36.46C330.011 35.6067 329.605 34.42 329.605 32.9C329.605 31.3933 329.985 30.1533 330.745 29.18C331.505 28.2067 332.498 27.72 333.725 27.72C335.111 27.72 336.131 28.3267 336.785 29.54V27.86ZM346.621 33.32H344.861C344.008 33.32 343.368 33.4867 342.941 33.82C342.515 34.1533 342.301 34.5733 342.301 35.08C342.301 35.5867 342.468 36 342.801 36.32C343.135 36.6267 343.621 36.78 344.261 36.78C344.981 36.78 345.555 36.58 345.981 36.18C346.408 35.7667 346.621 35.2467 346.621 34.62V33.32ZM341.381 29.98V28.4C342.141 27.9333 343.141 27.7 344.381 27.7C346.928 27.7 348.201 28.9933 348.201 31.58V38H346.641V36.8C346.121 37.6667 345.175 38.1 343.801 38.1C342.855 38.1 342.088 37.82 341.501 37.26C340.928 36.7 340.641 35.9933 340.641 35.14C340.641 34.1667 341.008 33.4133 341.741 32.88C342.488 32.3333 343.501 32.06 344.781 32.06H346.621V31.54C346.621 30.74 346.441 30.14 346.081 29.74C345.721 29.3267 345.115 29.12 344.261 29.12C343.181 29.12 342.221 29.4067 341.381 29.98ZM353.185 29.14V35.08C353.185 36.16 353.692 36.7 354.705 36.7C355.225 36.7 355.685 36.5467 356.085 36.24V37.74C355.645 37.98 355.152 38.1 354.605 38.1C352.605 38.1 351.605 37.08 351.605 35.04V29.14H349.985V27.86H351.605V25.34H353.185V27.86H355.985V29.14H353.185ZM358.468 38V27.86H360.048V38H358.468ZM358.508 25.42C358.321 25.22 358.228 24.9733 358.228 24.68C358.228 24.3867 358.321 24.14 358.508 23.94C358.708 23.74 358.954 23.64 359.248 23.64C359.541 23.64 359.788 23.74 359.988 23.94C360.188 24.14 360.288 24.3867 360.288 24.68C360.288 24.9733 360.188 25.22 359.988 25.42C359.788 25.6067 359.541 25.7 359.248 25.7C358.954 25.7 358.708 25.6067 358.508 25.42ZM365.636 38L362.096 27.86H363.736L365.136 32.14L366.616 36.76C366.736 36.1867 367.236 34.6467 368.116 32.14L369.556 27.86H371.196L367.576 38H365.636ZM379.613 32.28V31.88C379.613 31.04 379.387 30.3733 378.933 29.88C378.48 29.3733 377.853 29.12 377.053 29.12C376.293 29.12 375.647 29.3933 375.113 29.94C374.58 30.4867 374.267 31.2667 374.173 32.28H379.613ZM380.553 36V37.48C379.767 37.8933 378.807 38.1 377.673 38.1C376.14 38.1 374.9 37.6333 373.953 36.7C373.02 35.7533 372.553 34.5067 372.553 32.96C372.553 31.3467 372.973 30.0733 373.813 29.14C374.653 28.2067 375.733 27.74 377.053 27.74C378.32 27.74 379.327 28.1467 380.073 28.96C380.82 29.7733 381.193 30.9267 381.193 32.42C381.193 32.8467 381.16 33.24 381.093 33.6H374.173C374.293 34.6 374.673 35.3667 375.313 35.9C375.953 36.4333 376.793 36.7 377.833 36.7C378.967 36.7 379.873 36.4667 380.553 36Z" fill="black"/>
<path d="M16.66 328.08V326C16.66 324.987 16.4 324.194 15.88 323.62C15.3467 323.047 14.6733 322.76 13.86 322.76C12.9533 322.76 12.2333 323.054 11.7 323.64C11.1667 324.227 10.9 325.06 10.9 326.14V328.08H16.66ZM9.52 329.7V326.16C9.52 324.6 9.92667 323.374 10.74 322.48C11.54 321.574 12.58 321.12 13.86 321.12C15.06 321.12 16.06 321.567 16.86 322.46C17.6467 323.354 18.04 324.534 18.04 326V328.08H23V329.7H9.52ZM12.86 317.322H14.64C13.3867 316.788 12.76 315.868 12.76 314.562C12.76 314.322 12.7733 314.135 12.8 314.002H14.36C14.2667 314.282 14.22 314.568 14.22 314.862C14.22 315.568 14.5467 316.155 15.2 316.622C15.8533 317.088 16.6067 317.322 17.46 317.322H23V318.902L12.86 318.882V317.322ZM17.28 305.898H16.88C16.04 305.898 15.3733 306.125 14.88 306.578C14.3733 307.032 14.12 307.658 14.12 308.458C14.12 309.218 14.3933 309.865 14.94 310.398C15.4867 310.932 16.2667 311.245 17.28 311.338V305.898ZM21 304.958H22.48C22.8933 305.745 23.1 306.705 23.1 307.838C23.1 309.372 22.6333 310.612 21.7 311.558C20.7533 312.492 19.5067 312.958 17.96 312.958C16.3467 312.958 15.0733 312.538 14.14 311.698C13.2067 310.858 12.74 309.778 12.74 308.458C12.74 307.192 13.1467 306.185 13.96 305.438C14.7733 304.692 15.9267 304.318 17.42 304.318C17.8467 304.318 18.24 304.352 18.6 304.418V311.338C19.6 311.218 20.3667 310.838 20.9 310.198C21.4333 309.558 21.7 308.718 21.7 307.678C21.7 306.545 21.4667 305.638 21 304.958ZM21.72 298.049C21.72 297.222 21.4133 296.522 20.8 295.949C20.1867 295.362 19.2067 295.069 17.86 295.069C16.58 295.069 15.64 295.369 15.04 295.969C14.44 296.569 14.14 297.229 14.14 297.949C14.14 298.789 14.48 299.489 15.16 300.049C15.8267 300.596 16.7867 300.869 18.04 300.869C19.1333 300.869 20.02 300.602 20.7 300.069C21.38 299.536 21.72 298.862 21.72 298.049ZM8.86 295.069V293.489H23V295.069H21.5C22.6067 295.789 23.16 296.829 23.16 298.189C23.16 299.536 22.66 300.596 21.66 301.369C20.66 302.129 19.4467 302.509 18.02 302.509C16.4333 302.509 15.1533 302.102 14.18 301.289C13.1933 300.476 12.7 299.429 12.7 298.149C12.7 296.829 13.2667 295.802 14.4 295.069H8.86ZM23 290.481H12.86V288.901H23V290.481ZM10.42 290.441C10.22 290.628 9.97333 290.721 9.68 290.721C9.38667 290.721 9.14 290.628 8.94 290.441C8.74 290.241 8.64 289.995 8.64 289.701C8.64 289.408 8.74 289.161 8.94 288.961C9.14 288.761 9.38667 288.661 9.68 288.661C9.97333 288.661 10.22 288.761 10.42 288.961C10.6067 289.161 10.7 289.408 10.7 289.701C10.7 289.995 10.6067 290.241 10.42 290.441ZM17.98 284.854C19.0733 284.84 19.9867 284.507 20.72 283.854C21.44 283.2 21.8 282.274 21.8 281.074C21.8 280.3 21.58 279.58 21.14 278.914H22.64C23.0267 279.554 23.22 280.34 23.22 281.274C23.22 282.874 22.7133 284.147 21.7 285.094C20.6733 286.027 19.4267 286.494 17.96 286.494C16.52 286.494 15.28 286.027 14.24 285.094C13.2 284.147 12.68 282.86 12.68 281.234C12.68 280.367 12.8667 279.594 13.24 278.914H14.74C14.3267 279.527 14.12 280.247 14.12 281.074C14.12 282.22 14.4933 283.14 15.24 283.834C15.9733 284.514 16.8867 284.854 17.98 284.854ZM14.14 274.299H20.08C21.16 274.299 21.7 273.793 21.7 272.779C21.7 272.259 21.5467 271.799 21.24 271.399H22.74C22.98 271.839 23.1 272.333 23.1 272.879C23.1 274.879 22.08 275.879 20.04 275.879H14.14V277.499H12.86V275.879H10.34V274.299H12.86V271.499H14.14V274.299ZM17.28 262.637H16.88C16.04 262.637 15.3733 262.863 14.88 263.317C14.3733 263.77 14.12 264.397 14.12 265.197C14.12 265.957 14.3933 266.603 14.94 267.137C15.4867 267.67 16.2667 267.983 17.28 268.077V262.637ZM21 261.697H22.48C22.8933 262.483 23.1 263.443 23.1 264.577C23.1 266.11 22.6333 267.35 21.7 268.297C20.7533 269.23 19.5067 269.697 17.96 269.697C16.3467 269.697 15.0733 269.277 14.14 268.437C13.2067 267.597 12.74 266.517 12.74 265.197C12.74 263.93 13.1467 262.923 13.96 262.177C14.7733 261.43 15.9267 261.057 17.42 261.057C17.8467 261.057 18.24 261.09 18.6 261.157V268.077C19.6 267.957 20.3667 267.577 20.9 266.937C21.4333 266.297 21.7 265.457 21.7 264.417C21.7 263.283 21.4667 262.377 21 261.697ZM21.72 254.787C21.72 253.961 21.4133 253.261 20.8 252.687C20.1867 252.101 19.2067 251.807 17.86 251.807C16.58 251.807 15.64 252.107 15.04 252.707C14.44 253.307 14.14 253.967 14.14 254.687C14.14 255.527 14.48 256.227 15.16 256.787C15.8267 257.334 16.7867 257.607 18.04 257.607C19.1333 257.607 20.02 257.341 20.7 256.807C21.38 256.274 21.72 255.601 21.72 254.787ZM8.86 251.807V250.227H23V251.807H21.5C22.6067 252.527 23.16 253.567 23.16 254.927C23.16 256.274 22.66 257.334 21.66 258.107C20.66 258.867 19.4467 259.247 18.02 259.247C16.4333 259.247 15.1533 258.841 14.18 258.027C13.1933 257.214 12.7 256.167 12.7 254.887C12.7 253.567 13.2667 252.541 14.4 251.807H8.86ZM55 327.122H41.52V325.082L47.2 321.702L53.04 318.282C51.7467 318.335 49.8067 318.362 47.22 318.362H41.52V316.742H55V318.782L49.36 322.162C48.2267 322.842 47.1733 323.469 46.2 324.042C45.2133 324.615 44.5067 325.022 44.08 325.262L43.46 325.602C44.8467 325.535 46.8 325.502 49.32 325.502H55V327.122ZM49.28 307.285H48.88C48.04 307.285 47.3733 307.512 46.88 307.965C46.3733 308.418 46.12 309.045 46.12 309.845C46.12 310.605 46.3933 311.252 46.94 311.785C47.4867 312.318 48.2667 312.632 49.28 312.725V307.285ZM53 306.345H54.48C54.8933 307.132 55.1 308.092 55.1 309.225C55.1 310.758 54.6333 311.998 53.7 312.945C52.7533 313.878 51.5067 314.345 49.96 314.345C48.3467 314.345 47.0733 313.925 46.14 313.085C45.2067 312.245 44.74 311.165 44.74 309.845C44.74 308.578 45.1467 307.572 45.96 306.825C46.7733 306.078 47.9267 305.705 49.42 305.705C49.8467 305.705 50.24 305.738 50.6 305.805L50.6 312.725C51.6 312.605 52.3667 312.225 52.9 311.585C53.4333 310.945 53.7 310.105 53.7 309.065C53.7 307.932 53.4667 307.025 53 306.345ZM53.34 299.496C53.34 298.763 53.06 298.116 52.5 297.556C51.9267 296.983 51.08 296.696 49.96 296.696C48.6667 296.696 47.7067 296.969 47.08 297.516C46.4533 298.063 46.14 298.696 46.14 299.416C46.14 300.283 46.4867 300.969 47.18 301.476C47.86 301.983 48.7533 302.236 49.86 302.236C50.9933 302.236 51.86 301.956 52.46 301.396C53.0467 300.836 53.34 300.203 53.34 299.496ZM44.86 296.696V295.116H54.18C55.7267 295.116 56.8867 295.543 57.66 296.396C58.4467 297.249 58.84 298.349 58.84 299.696C58.84 300.923 58.6333 301.969 58.22 302.836H56.64C57.1333 301.983 57.38 300.983 57.38 299.836C57.38 298.863 57.12 298.096 56.6 297.536C56.08 296.976 55.2667 296.696 54.16 296.696H53.02C54.1667 297.363 54.74 298.356 54.74 299.676C54.74 300.836 54.3133 301.829 53.46 302.656C52.6067 303.469 51.42 303.876 49.9 303.876C48.3933 303.876 47.1533 303.496 46.18 302.736C45.2067 301.976 44.72 300.983 44.72 299.756C44.72 298.369 45.3267 297.349 46.54 296.696H44.86ZM50.32 286.859V288.619C50.32 289.473 50.4867 290.113 50.82 290.539C51.1533 290.966 51.5733 291.179 52.08 291.179C52.5867 291.179 53 291.013 53.32 290.679C53.6267 290.346 53.78 289.859 53.78 289.219C53.78 288.499 53.58 287.926 53.18 287.499C52.7667 287.073 52.2467 286.859 51.62 286.859H50.32ZM46.98 292.099H45.4C44.9333 291.339 44.7 290.339 44.7 289.099C44.7 286.553 45.9933 285.279 48.58 285.279H55V286.839H53.8C54.6667 287.359 55.1 288.306 55.1 289.679C55.1 290.626 54.82 291.393 54.26 291.979C53.7 292.553 52.9933 292.839 52.14 292.839C51.1667 292.839 50.4133 292.473 49.88 291.739C49.3333 290.993 49.06 289.979 49.06 288.699V286.859H48.54C47.74 286.859 47.14 287.039 46.74 287.399C46.3267 287.759 46.12 288.366 46.12 289.219C46.12 290.299 46.4067 291.259 46.98 292.099ZM46.14 280.296H52.08C53.16 280.296 53.7 279.789 53.7 278.776C53.7 278.256 53.5467 277.796 53.24 277.396H54.74C54.98 277.836 55.1 278.329 55.1 278.876C55.1 280.876 54.08 281.876 52.04 281.876H46.14V283.496H44.86V281.876H42.34V280.296H44.86V277.496H46.14V280.296ZM55 275.013H44.86V273.433H55V275.013ZM42.42 274.973C42.22 275.159 41.9733 275.253 41.68 275.253C41.3867 275.253 41.14 275.159 40.94 274.973C40.74 274.773 40.64 274.526 40.64 274.233C40.64 273.939 40.74 273.693 40.94 273.493C41.14 273.293 41.3867 273.193 41.68 273.193C41.9733 273.193 42.22 273.293 42.42 273.493C42.6067 273.693 42.7 273.939 42.7 274.233C42.7 274.526 42.6067 274.773 42.42 274.973ZM55 267.845L44.86 271.385V269.745L49.14 268.345L53.76 266.865C53.1867 266.745 51.6467 266.245 49.14 265.365L44.86 263.925V262.285L55 265.905V267.845ZM49.28 253.867H48.88C48.04 253.867 47.3733 254.094 46.88 254.547C46.3733 255 46.12 255.627 46.12 256.427C46.12 257.187 46.3933 257.834 46.94 258.367C47.4867 258.9 48.2667 259.214 49.28 259.307V253.867ZM53 252.927H54.48C54.8933 253.714 55.1 254.674 55.1 255.807C55.1 257.34 54.6333 258.58 53.7 259.527C52.7533 260.46 51.5067 260.927 49.96 260.927C48.3467 260.927 47.0733 260.507 46.14 259.667C45.2067 258.827 44.74 257.747 44.74 256.427C44.74 255.16 45.1467 254.154 45.96 253.407C46.7733 252.66 47.9267 252.287 49.42 252.287C49.8467 252.287 50.24 252.32 50.6 252.387V259.307C51.6 259.187 52.3667 258.807 52.9 258.167C53.4333 257.527 53.7 256.687 53.7 255.647C53.7 254.514 53.4667 253.607 53 252.927Z" fill="black"/>
<defs>
<filter id="filter0_d_2_45" x="65.5" y="64.5" width="341.5" height="311.5" filterUnits="userSpaceOnUse" color-interpolation-filters="sRGB">
<feFlood flood-opacity="0" result="BackgroundImageFix"/>
<feColorMatrix in="SourceAlpha" type="matrix" values="0 0 0 0 0 0 0 0 0 0 0 0 0 0 0 0 0 0 127 0" result="hardAlpha"/>
<feOffset dx="6" dy="6"/>
<feGaussianBlur stdDeviation="2.5"/>
<feComposite in2="hardAlpha" operator="out"/>
<feColorMatrix type="matrix" values="0 0 0 0 0 0 0 0 0 0 0 0 0 0 0 0 0 0 0.35 0"/>
<feBlend mode="normal" in2="BackgroundImageFix" result="effect1_dropShadow_2_45"/>
<feBlend mode="normal" in="SourceGraphic" in2="effect1_dropShadow_2_45" result="shape"/>
</filter>
<linearGradient id="paint0_linear_2_45" x1="66" y1="65" x2="231" y2="215" gradientUnits="userSpaceOnUse">
<stop stop-color="#9BE788"/>
<stop offset="1" stop-color="white" stop-opacity="0"/>
</linearGradient>
<linearGradient id="paint1_linear_2_45" x1="66" y1="365" x2="231" y2="215" gradientUnits="userSpaceOnUse">
<stop stop-color="#FB1414"/>
<stop offset="1" stop-color="#FB1414" stop-opacity="0"/>
</linearGradient>
<linearGradient id="paint2_linear_2_45" x1="396" y1="365" x2="231" y2="215" gradientUnits="userSpaceOnUse">
<stop stop-color="#9BE788"/>
<stop offset="1" stop-color="white" stop-opacity="0"/>
</linearGradient>
<linearGradient id="paint3_linear_2_45" x1="396" y1="68.5" x2="231" y2="215" gradientUnits="userSpaceOnUse">
<stop stop-color="#FB1414"/>
<stop offset="1" stop-color="#D9D9D9" stop-opacity="0"/>
</linearGradient>
</defs>
</svg>
