<svg width="555" height="455" viewBox="0 0 555 455" fill="none" xmlns="http://www.w3.org/2000/svg">
<line x1="283.5" y1="181" x2="283.5" y2="425" stroke="black" stroke-dasharray="10 10"/>
<path d="M18.8821 -0.707076C18.4916 -1.0976 17.8584 -1.0976 17.4679 -0.707076L11.1039 5.65688C10.7134 6.04741 10.7134 6.68057 11.1039 7.0711C11.4944 7.46162 12.1276 7.46162 12.5181 7.0711L18.175 1.41424L23.8318 7.0711C24.2224 7.46162 24.8555 7.46162 25.2461 7.0711C25.6366 6.68057 25.6366 6.04741 25.2461 5.65688L18.8821 -0.707076ZM19.175 424.851L19.175 3.05176e-05H17.175L17.175 424.851H19.175Z" fill="black"/>
<path d="M518.707 425.558C519.098 425.168 519.098 424.535 518.707 424.144L512.343 417.78C511.952 417.39 511.319 417.39 510.929 417.78C510.538 418.171 510.538 418.804 510.929 419.194L516.586 424.851L510.929 430.508C510.538 430.899 510.538 431.532 510.929 431.922C511.319 432.313 511.952 432.313 512.343 431.922L518.707 425.558ZM18.175 425.851H518V423.851H18.175V425.851Z" fill="black"/>
<path d="M400.84 438L401.428 429.912H402.664L403.732 432.864L405.028 436.632C405.492 435.32 405.948 434.064 406.396 432.864L407.512 429.912H408.748L409.456 438H408.484L408.208 434.808L407.92 431.22C407.496 432.404 407.06 433.6 406.612 434.808L405.484 437.82H404.56L403.492 434.808L402.268 431.292C402.268 431.604 402.192 432.776 402.04 434.808L401.812 438H400.84ZM413.637 438.108C412.765 438.108 412.073 437.816 411.561 437.232C411.057 436.64 410.805 435.896 410.805 435C410.805 434.096 411.065 433.344 411.585 432.744C412.113 432.136 412.797 431.832 413.637 431.832C414.557 431.832 415.265 432.128 415.761 432.72C416.265 433.312 416.517 434.064 416.517 434.976C416.517 435.88 416.261 436.628 415.749 437.22C415.237 437.812 414.533 438.108 413.637 438.108ZM413.637 432.672C413.061 432.672 412.609 432.896 412.281 433.344C411.953 433.792 411.789 434.34 411.789 434.988C411.789 435.62 411.957 436.16 412.293 436.608C412.629 437.048 413.077 437.268 413.637 437.268C414.245 437.268 414.713 437.052 415.041 436.62C415.369 436.18 415.533 435.636 415.533 434.988C415.533 434.316 415.377 433.764 415.065 433.332C414.753 432.892 414.277 432.672 413.637 432.672ZM420.219 437.232C420.715 437.232 421.135 437.048 421.479 436.68C421.831 436.312 422.007 435.724 422.007 434.916C422.007 434.148 421.827 433.584 421.467 433.224C421.107 432.864 420.711 432.684 420.279 432.684C419.775 432.684 419.355 432.888 419.019 433.296C418.691 433.696 418.527 434.272 418.527 435.024C418.527 435.68 418.687 436.212 419.007 436.62C419.327 437.028 419.731 437.232 420.219 437.232ZM422.007 429.516H422.955V438H422.007V437.1C421.575 437.764 420.951 438.096 420.135 438.096C419.327 438.096 418.691 437.796 418.227 437.196C417.771 436.596 417.543 435.868 417.543 435.012C417.543 434.06 417.787 433.292 418.275 432.708C418.763 432.116 419.391 431.82 420.159 431.82C420.951 431.82 421.567 432.16 422.007 432.84V429.516ZM428.588 434.568V434.328C428.588 433.824 428.452 433.424 428.18 433.128C427.908 432.824 427.532 432.672 427.052 432.672C426.596 432.672 426.208 432.836 425.888 433.164C425.568 433.492 425.38 433.96 425.324 434.568H428.588ZM429.152 436.8V437.688C428.68 437.936 428.104 438.06 427.424 438.06C426.504 438.06 425.76 437.78 425.192 437.22C424.632 436.652 424.352 435.904 424.352 434.976C424.352 434.008 424.604 433.244 425.108 432.684C425.612 432.124 426.26 431.844 427.052 431.844C427.812 431.844 428.416 432.088 428.864 432.576C429.312 433.064 429.536 433.756 429.536 434.652C429.536 434.908 429.516 435.144 429.476 435.36H425.324C425.396 435.96 425.624 436.42 426.008 436.74C426.392 437.06 426.896 437.22 427.52 437.22C428.2 437.22 428.744 437.08 429.152 436.8ZM431.029 438V429.516H431.977V438H431.029ZM442.532 430.236V431.232C442.18 431.048 441.864 430.916 441.584 430.836C441.304 430.756 440.936 430.716 440.48 430.716C439.608 430.716 438.88 431.012 438.296 431.604C437.72 432.196 437.432 432.968 437.432 433.92C437.432 434.912 437.72 435.704 438.296 436.296C438.872 436.888 439.636 437.184 440.588 437.184C441.356 437.184 442.012 436.98 442.556 436.572V437.592C442.06 437.928 441.38 438.096 440.516 438.096C439.3 438.096 438.312 437.724 437.552 436.98C436.792 436.228 436.412 435.208 436.412 433.92C436.412 432.704 436.796 431.716 437.564 430.956C438.34 430.188 439.312 429.804 440.48 429.804C441.32 429.804 442.004 429.948 442.532 430.236ZM446.403 438.108C445.531 438.108 444.839 437.816 444.327 437.232C443.823 436.64 443.571 435.896 443.571 435C443.571 434.096 443.831 433.344 444.351 432.744C444.879 432.136 445.563 431.832 446.403 431.832C447.323 431.832 448.031 432.128 448.527 432.72C449.031 433.312 449.283 434.064 449.283 434.976C449.283 435.88 449.027 436.628 448.515 437.22C448.003 437.812 447.299 438.108 446.403 438.108ZM446.403 432.672C445.827 432.672 445.375 432.896 445.047 433.344C444.719 433.792 444.555 434.34 444.555 434.988C444.555 435.62 444.723 436.16 445.059 436.608C445.395 437.048 445.843 437.268 446.403 437.268C447.011 437.268 447.479 437.052 447.807 436.62C448.135 436.18 448.299 435.636 448.299 434.988C448.299 434.316 448.143 433.764 447.831 433.332C447.519 432.892 447.043 432.672 446.403 432.672ZM451.605 431.916V432.9C451.941 432.188 452.513 431.832 453.321 431.832C454.257 431.832 454.849 432.228 455.097 433.02C455.273 432.636 455.517 432.344 455.829 432.144C456.149 431.936 456.505 431.832 456.897 431.832C457.529 431.832 458.005 432.012 458.325 432.372C458.645 432.732 458.805 433.216 458.805 433.824V438H457.857V434.064C457.857 433.144 457.469 432.684 456.693 432.684C456.309 432.684 455.965 432.86 455.661 433.212C455.357 433.556 455.205 434.044 455.205 434.676V438H454.257V434.064C454.257 433.144 453.869 432.684 453.093 432.684C452.709 432.684 452.365 432.86 452.061 433.212C451.757 433.556 451.605 434.044 451.605 434.676V438H450.669V431.916H451.605ZM463.165 437.232C463.677 437.232 464.097 437.032 464.425 436.632C464.753 436.224 464.917 435.648 464.917 434.904C464.917 434.24 464.757 433.704 464.437 433.296C464.117 432.888 463.713 432.684 463.225 432.684C462.737 432.684 462.313 432.864 461.953 433.224C461.601 433.576 461.425 434.156 461.425 434.964C461.425 435.74 461.605 436.312 461.965 436.68C462.325 437.048 462.725 437.232 463.165 437.232ZM461.425 431.916V432.84C461.849 432.16 462.477 431.82 463.309 431.82C464.117 431.82 464.749 432.116 465.205 432.708C465.669 433.292 465.901 434.024 465.901 434.904C465.901 435.84 465.657 436.608 465.169 437.208C464.689 437.8 464.061 438.096 463.285 438.096C462.485 438.096 461.865 437.756 461.425 437.076V440.364H460.489V431.916H461.425ZM467.346 438V429.516H468.294V438H467.346ZM473.975 434.568V434.328C473.975 433.824 473.839 433.424 473.567 433.128C473.295 432.824 472.919 432.672 472.439 432.672C471.983 432.672 471.595 432.836 471.275 433.164C470.955 433.492 470.767 433.96 470.711 434.568H473.975ZM474.539 436.8V437.688C474.067 437.936 473.491 438.06 472.811 438.06C471.891 438.06 471.147 437.78 470.579 437.22C470.019 436.652 469.739 435.904 469.739 434.976C469.739 434.008 469.991 433.244 470.495 432.684C470.999 432.124 471.647 431.844 472.439 431.844C473.199 431.844 473.803 432.088 474.251 432.576C474.699 433.064 474.923 433.756 474.923 434.652C474.923 434.908 474.903 435.144 474.863 435.36H470.711C470.783 435.96 471.011 436.42 471.395 436.74C471.779 437.06 472.283 437.22 472.907 437.22C473.587 437.22 474.131 437.08 474.539 436.8ZM478.888 434.892L480.928 438H479.836L478.36 435.6L476.836 438H475.792L477.832 434.88L475.912 431.904H477.004L478.384 434.184L479.776 431.904H480.856L478.888 434.892ZM482.147 438V431.916H483.095V438H482.147ZM482.171 430.452C482.059 430.332 482.003 430.184 482.003 430.008C482.003 429.832 482.059 429.684 482.171 429.564C482.291 429.444 482.439 429.384 482.615 429.384C482.791 429.384 482.939 429.444 483.059 429.564C483.179 429.684 483.239 429.832 483.239 430.008C483.239 430.184 483.179 430.332 483.059 430.452C482.939 430.564 482.791 430.62 482.615 430.62C482.439 430.62 482.291 430.564 482.171 430.452ZM486.207 432.684V436.248C486.207 436.896 486.511 437.22 487.119 437.22C487.431 437.22 487.707 437.128 487.947 436.944V437.844C487.683 437.988 487.387 438.06 487.059 438.06C485.859 438.06 485.259 437.448 485.259 436.224V432.684H484.287V431.916H485.259V430.404H486.207V431.916H487.887V432.684H486.207ZM491.009 437.844L488.549 431.916H489.617L490.409 433.92L491.477 436.68C491.541 436.472 491.861 435.552 492.437 433.92L493.145 431.916H494.165L491.969 437.844C491.657 438.668 491.285 439.248 490.853 439.584C490.429 439.92 489.941 440.088 489.389 440.088C489.181 440.088 489.013 440.068 488.885 440.028V439.176C489.005 439.208 489.141 439.224 489.293 439.224C490.101 439.224 490.673 438.764 491.009 437.844Z" fill="black"/>
<path d="M12.148 41.104V37.564H13V42.076H4.912V37.624H5.764V41.104H8.536V38.032H9.388V41.104H12.148ZM6.916 35.1763H7.984C7.232 34.8563 6.856 34.3043 6.856 33.5203C6.856 33.3763 6.864 33.2643 6.88 33.1843H7.816C7.76 33.3523 7.732 33.5243 7.732 33.7003C7.732 34.1243 7.928 34.4763 8.32 34.7563C8.712 35.0363 9.164 35.1763 9.676 35.1763H13V36.1243L6.916 36.1123L6.916 35.1763ZM6.916 31.2622H7.984C7.232 30.9422 6.856 30.3902 6.856 29.6062C6.856 29.4622 6.864 29.3502 6.88 29.2702H7.816C7.76 29.4382 7.732 29.6102 7.732 29.7862C7.732 30.2102 7.928 30.5622 8.32 30.8422C8.712 31.1222 9.164 31.2622 9.676 31.2622H13V32.2102L6.916 32.1982V31.2622ZM13.108 25.8122C13.108 26.6842 12.816 27.3762 12.232 27.8882C11.64 28.3922 10.896 28.6442 10 28.6442C9.096 28.6442 8.344 28.3842 7.744 27.8642C7.136 27.3362 6.832 26.6522 6.832 25.8122C6.832 24.8922 7.128 24.1842 7.72 23.6882C8.312 23.1842 9.064 22.9322 9.976 22.9322C10.88 22.9322 11.628 23.1882 12.22 23.7002C12.812 24.2122 13.108 24.9162 13.108 25.8122ZM7.672 25.8122C7.672 26.3882 7.896 26.8402 8.344 27.1682C8.792 27.4962 9.34 27.6602 9.988 27.6602C10.62 27.6602 11.16 27.4922 11.608 27.1562C12.048 26.8202 12.268 26.3722 12.268 25.8122C12.268 25.2042 12.052 24.7362 11.62 24.4082C11.18 24.0802 10.636 23.9162 9.988 23.9162C9.316 23.9162 8.764 24.0722 8.332 24.3842C7.892 24.6962 7.672 25.1722 7.672 25.8122ZM6.916 20.6099H7.984C7.232 20.2899 6.856 19.7379 6.856 18.9539C6.856 18.8099 6.864 18.6979 6.88 18.6179H7.816C7.76 18.7859 7.732 18.9579 7.732 19.1339C7.732 19.5579 7.928 19.9099 8.32 20.1899C8.712 20.4699 9.164 20.6099 9.676 20.6099H13V21.5579L6.916 21.5459L6.916 20.6099Z" fill="black"/>
<path d="M53.4993 22.5149C227.864 219.452 315.983 225.967 458.357 77.4956" stroke="#DC8B8B" stroke-width="3" stroke-linecap="round"/>
<g filter="url(#filter0_d_9_3)">
<rect x="188" width="160" height="30" rx="15" fill="#F3F2F2"/>
<rect x="188.25" y="0.25" width="159.5" height="29.5" rx="14.75" stroke="#9B9B9B" stroke-width="0.5"/>
</g>
<path d="M273.556 9.912V10.764H271.372V18H270.4V10.764H268.216V9.912H273.556ZM277.137 18.108C276.265 18.108 275.573 17.816 275.061 17.232C274.557 16.64 274.305 15.896 274.305 15C274.305 14.096 274.565 13.344 275.085 12.744C275.613 12.136 276.297 11.832 277.137 11.832C278.057 11.832 278.765 12.128 279.261 12.72C279.765 13.312 280.017 14.064 280.017 14.976C280.017 15.88 279.761 16.628 279.249 17.22C278.737 17.812 278.033 18.108 277.137 18.108ZM277.137 12.672C276.561 12.672 276.109 12.896 275.781 13.344C275.453 13.792 275.289 14.34 275.289 14.988C275.289 15.62 275.457 16.16 275.793 16.608C276.129 17.048 276.577 17.268 277.137 17.268C277.745 17.268 278.213 17.052 278.541 16.62C278.869 16.18 279.033 15.636 279.033 14.988C279.033 14.316 278.877 13.764 278.565 13.332C278.253 12.892 277.777 12.672 277.137 12.672ZM282.711 12.684V16.248C282.711 16.896 283.015 17.22 283.623 17.22C283.935 17.22 284.211 17.128 284.451 16.944V17.844C284.187 17.988 283.891 18.06 283.563 18.06C282.363 18.06 281.763 17.448 281.763 16.224V12.684H280.791V11.916H281.763V10.404H282.711V11.916H284.391V12.684H282.711ZM289.109 15.192H288.053C287.541 15.192 287.157 15.292 286.901 15.492C286.645 15.692 286.517 15.944 286.517 16.248C286.517 16.552 286.617 16.8 286.817 16.992C287.017 17.176 287.309 17.268 287.693 17.268C288.125 17.268 288.469 17.148 288.725 16.908C288.981 16.66 289.109 16.348 289.109 15.972V15.192ZM285.965 13.188V12.24C286.421 11.96 287.021 11.82 287.765 11.82C289.293 11.82 290.057 12.596 290.057 14.148V18H289.121V17.28C288.809 17.8 288.241 18.06 287.417 18.06C286.849 18.06 286.389 17.892 286.037 17.556C285.693 17.22 285.521 16.796 285.521 16.284C285.521 15.7 285.741 15.248 286.181 14.928C286.629 14.6 287.237 14.436 288.005 14.436H289.109V14.124C289.109 13.644 289.001 13.284 288.785 13.044C288.569 12.796 288.205 12.672 287.693 12.672C287.045 12.672 286.469 12.844 285.965 13.188ZM291.787 18V9.516H292.735V18H291.787ZM298.49 17.148H302.03V18H297.518V9.912H301.97V10.764H298.49V13.536H301.562V14.388H298.49V17.148ZM304.417 11.916V12.984C304.737 12.232 305.289 11.856 306.073 11.856C306.217 11.856 306.329 11.864 306.409 11.88V12.816C306.241 12.76 306.069 12.732 305.893 12.732C305.469 12.732 305.117 12.928 304.837 13.32C304.557 13.712 304.417 14.164 304.417 14.676V18H303.469L303.481 11.916H304.417ZM308.332 11.916V12.984C308.652 12.232 309.204 11.856 309.988 11.856C310.132 11.856 310.244 11.864 310.324 11.88V12.816C310.156 12.76 309.984 12.732 309.808 12.732C309.384 12.732 309.032 12.928 308.752 13.32C308.472 13.712 308.332 14.164 308.332 14.676V18H307.384L307.396 11.916H308.332ZM313.782 18.108C312.91 18.108 312.218 17.816 311.706 17.232C311.202 16.64 310.95 15.896 310.95 15C310.95 14.096 311.21 13.344 311.73 12.744C312.258 12.136 312.942 11.832 313.782 11.832C314.702 11.832 315.41 12.128 315.906 12.72C316.41 13.312 316.662 14.064 316.662 14.976C316.662 15.88 316.406 16.628 315.894 17.22C315.382 17.812 314.678 18.108 313.782 18.108ZM313.782 12.672C313.206 12.672 312.754 12.896 312.426 13.344C312.098 13.792 311.934 14.34 311.934 14.988C311.934 15.62 312.102 16.16 312.438 16.608C312.774 17.048 313.222 17.268 313.782 17.268C314.39 17.268 314.858 17.052 315.186 16.62C315.514 16.18 315.678 15.636 315.678 14.988C315.678 14.316 315.522 13.764 315.21 13.332C314.898 12.892 314.422 12.672 313.782 12.672ZM318.984 11.916V12.984C319.304 12.232 319.856 11.856 320.64 11.856C320.784 11.856 320.896 11.864 320.976 11.88V12.816C320.808 12.76 320.636 12.732 320.46 12.732C320.036 12.732 319.684 12.928 319.404 13.32C319.124 13.712 318.984 14.164 318.984 14.676V18H318.036L318.048 11.916H318.984Z" fill="black"/>
<line x1="214.607" y1="13.4948" x2="246.595" y2="13.4948" stroke="#DC8B8B" stroke-width="3" stroke-linecap="round"/>
<path d="M282.316 440.52V438.084L280 431.568H281.092L282.256 435.036C282.32 435.228 282.4 435.456 282.496 435.72C282.592 435.984 282.68 436.244 282.76 436.5C282.848 436.748 282.912 436.952 282.952 437.112H283C283.456 436.608 283.812 436.08 284.068 435.528C284.332 434.968 284.516 434.364 284.62 433.716C284.732 433.06 284.788 432.344 284.788 431.568H285.832C285.832 432.392 285.76 433.168 285.616 433.896C285.472 434.616 285.22 435.316 284.86 435.996C284.508 436.668 284.012 437.352 283.372 438.048V440.52H282.316Z" fill="black"/>
<defs>
<filter id="filter0_d_9_3" x="187" y="0" width="162" height="32" filterUnits="userSpaceOnUse" color-interpolation-filters="sRGB">
<feFlood flood-opacity="0" result="BackgroundImageFix"/>
<feColorMatrix in="SourceAlpha" type="matrix" values="0 0 0 0 0 0 0 0 0 0 0 0 0 0 0 0 0 0 127 0" result="hardAlpha"/>
<feOffset dy="1"/>
<feGaussianBlur stdDeviation="0.5"/>
<feComposite in2="hardAlpha" operator="out"/>
<feColorMatrix type="matrix" values="0 0 0 0 0 0 0 0 0 0 0 0 0 0 0 0 0 0 0.5 0"/>
<feBlend mode="normal" in2="BackgroundImageFix" result="effect1_dropShadow_9_3"/>
<feBlend mode="normal" in="SourceGraphic" in2="effect1_dropShadow_9_3" result="shape"/>
</filter>
</defs>
</svg>
